<svg width="18" height="19" viewBox="0 0 18 19" fill="none" xmlns="http://www.w3.org/2000/svg">
<path d="M5.92676 1.93793V4.1609" stroke="#212121" stroke-width="0.889189" stroke-miterlimit="10" stroke-linecap="round" stroke-linejoin="round"/>
<path d="M11.8555 1.93793V4.1609" stroke="#212121" stroke-width="0.889189" stroke-miterlimit="10" stroke-linecap="round" stroke-linejoin="round"/>
<path d="M13.4844 16.3131C14.794 16.3131 15.8556 15.2515 15.8556 13.942C15.8556 12.6324 14.794 11.5708 13.4844 11.5708C12.1749 11.5708 11.1133 12.6324 11.1133 13.942C11.1133 15.2515 12.1749 16.3131 13.4844 16.3131Z" stroke="#212121" stroke-width="0.889189" stroke-linecap="round" stroke-linejoin="round"/>
<path d="M16.3006 16.7577L15.5596 16.0168" stroke="#212121" stroke-width="0.889189" stroke-linecap="round" stroke-linejoin="round"/>
<path d="M2.5918 7.19153H15.1886" stroke="#212121" stroke-width="0.889189" stroke-miterlimit="10" stroke-linecap="round" stroke-linejoin="round"/>
<path d="M9.90575 16.7577H5.92663C3.33317 16.7577 2.22168 15.2758 2.22168 13.0528V6.75436C2.22168 4.53139 3.33317 3.04941 5.92663 3.04941H11.8546C14.448 3.04941 15.5595 4.53139 15.5595 6.75436V10.0888" stroke="#212121" stroke-width="0.889189" stroke-miterlimit="10" stroke-linecap="round" stroke-linejoin="round"/>
<path d="M8.88693 10.6075H8.89359" stroke="#212121" stroke-width="0.889189" stroke-linecap="round" stroke-linejoin="round"/>
<path d="M6.14475 10.6075H6.1514" stroke="#212121" stroke-width="0.889189" stroke-linecap="round" stroke-linejoin="round"/>
<path d="M6.14475 12.8305H6.1514" stroke="#212121" stroke-width="0.889189" stroke-linecap="round" stroke-linejoin="round"/>
</svg>
