<svg width="14" height="14" viewBox="0 0 14 14" fill="none" xmlns="http://www.w3.org/2000/svg">
<path d="M7.27158 0.0718994C3.59009 0.0718994 0.608887 3.05977 0.608887 6.74126C0.608887 10.4228 3.59009 13.4106 7.27158 13.4106C10.9597 13.4106 13.9476 10.4228 13.9476 6.74126C13.9476 3.05977 10.9597 0.0718994 7.27158 0.0718994ZM7.27825 12.0768C4.33039 12.0768 1.94276 9.68912 1.94276 6.74126C1.94276 3.7934 4.33039 1.40577 7.27825 1.40577C10.2261 1.40577 12.6137 3.7934 12.6137 6.74126C12.6137 9.68912 10.2261 12.0768 7.27825 12.0768ZM7.13152 3.40658H7.09151C6.82473 3.40658 6.61131 3.62 6.61131 3.88678V7.03472C6.61131 7.26814 6.73136 7.48823 6.93811 7.60828L9.7059 9.26895C9.93266 9.40234 10.2261 9.33565 10.3595 9.10889C10.4996 8.88213 10.4262 8.58201 10.1928 8.44862L7.61172 6.91467V3.88678C7.61172 3.62 7.3983 3.40658 7.13152 3.40658Z" fill="#FEBB26"/>
</svg>
