<svg width="24" height="24" viewBox="0 0 24 24" fill="none" xmlns="http://www.w3.org/2000/svg">
<path d="M6.42709 0H16.1907C16.2971 0.0342188 16.4007 0.0792187 16.4774 0.152812C18.9266 2.24531 21.3746 4.33922 23.8215 6.43313C24.0068 6.57141 24.0145 6.79172 23.9898 6.98578C23.9876 10.9078 23.9909 14.8303 23.9882 18.7528C23.9871 19.2684 23.7508 19.7808 23.3375 20.1567C22.893 20.5711 22.2429 20.8158 21.5851 20.8177C21.0216 20.8205 20.4581 20.8172 19.894 20.8195C19.8886 21.2081 19.8979 21.5972 19.8897 21.9863C19.8749 22.6228 19.4873 23.2402 18.8816 23.6095C18.4996 23.8472 18.0358 23.9794 17.565 24H2.36694C1.39561 23.9845 0.476365 23.4239 0.15186 22.6402C-0.00655566 22.2984 -0.00436303 21.9262 0.00221477 21.5648C0.00276292 16.1259 0.0011185 10.687 0.0033111 5.24859C0.00166665 4.67953 0.291638 4.11609 0.783877 3.73359C1.21911 3.38578 1.80837 3.18375 2.40421 3.18187C2.96881 3.17953 3.53285 3.18328 4.0969 3.18047C4.13637 2.53687 3.98124 1.85625 4.29971 1.24781C4.65711 0.531094 5.51606 0.0271875 6.42709 0ZM5.18004 2.02031C5.17895 2.59594 5.16799 3.17203 5.19101 3.74719C5.19101 8.74828 5.18991 13.7489 5.19156 18.7495C5.16744 19.3369 5.77862 19.8802 6.46546 19.8825C11.2864 19.8938 16.1091 19.8722 20.9295 19.897C21.3198 19.8844 21.7325 19.9434 22.1004 19.8C22.5816 19.6256 22.9144 19.1944 22.9089 18.7467C22.9105 14.9152 22.9089 11.0831 22.91 7.25109C22.8409 7.22391 22.7587 7.24875 22.6858 7.24078C21.0972 7.23938 19.5087 7.24266 17.9196 7.23891C16.8683 7.24266 15.8778 6.58828 15.6119 5.71875C15.499 5.4 15.5258 5.06438 15.5231 4.73625C15.522 3.465 15.5242 2.19375 15.5215 0.922969C12.5192 0.921563 9.51701 0.920625 6.51479 0.923438C5.82302 0.913125 5.19484 1.42828 5.18004 2.02031ZM16.6019 1.58578C16.6046 2.79281 16.5997 3.99937 16.604 5.20594C16.6112 5.77781 17.1906 6.28875 17.8588 6.31359C19.2845 6.31922 20.7108 6.31312 22.1365 6.31641C20.2904 4.74094 18.4491 3.16078 16.6019 1.58578ZM1.08262 5.25C1.08152 10.8127 1.08152 16.3753 1.08262 21.938C1.07933 22.4072 1.45372 22.853 1.97062 23.0077C2.23045 23.0939 2.51384 23.0766 2.78682 23.078C7.61054 23.078 12.4343 23.078 17.2574 23.078C17.4915 23.0817 17.7321 23.0761 17.952 22.9992C18.4568 22.8384 18.8147 22.3973 18.8125 21.9366C18.8104 21.5658 18.8219 21.1931 18.8065 20.8233C14.7102 20.8247 10.6144 20.8247 6.51808 20.8233C5.9206 20.8289 5.32969 20.6278 4.88843 20.2842C4.38906 19.898 4.07991 19.327 4.09635 18.7486C4.09251 13.867 4.09635 8.98547 4.09471 4.10437C3.51312 4.10391 2.93153 4.09922 2.34994 4.10672C1.66256 4.12547 1.06837 4.66219 1.08262 5.25Z" fill="black"/>
<path d="M7.96102 9.16923C8.07559 9.12891 8.20221 9.13454 8.3239 9.13407C12.1796 9.13501 16.0353 9.1336 19.891 9.13454C20.1935 9.11813 20.4791 9.34407 20.4632 9.60657C20.4665 9.86157 20.187 10.0749 19.8932 10.0594C15.9832 10.0589 12.0732 10.0603 8.16274 10.0584C7.91881 10.0613 7.68859 9.90704 7.63652 9.70266C7.57129 9.48798 7.71929 9.24798 7.96102 9.16923Z" fill="black"/>
<path d="M8.06343 11.7811C9.42723 11.7595 10.7932 11.7783 12.1581 11.7717C14.7361 11.7717 17.314 11.7717 19.892 11.7722C20.1902 11.7548 20.4703 11.9742 20.4631 12.232C20.473 12.4912 20.1918 12.712 19.8925 12.6965C15.9985 12.6975 12.1049 12.6966 8.21089 12.697C7.92859 12.7158 7.64958 12.5292 7.62546 12.2845C7.58819 12.0525 7.79429 11.8186 8.06343 11.7811Z" fill="black"/>
<path d="M8.12429 14.4122C12.0463 14.4061 15.9689 14.4112 19.8909 14.4094C20.1847 14.3916 20.4648 14.6048 20.4632 14.8598C20.4801 15.1219 20.1946 15.3525 19.8903 15.3314C15.9776 15.3305 12.0644 15.3323 8.1517 15.3305C7.8842 15.3328 7.64192 15.1392 7.62438 14.9114C7.58984 14.6634 7.83267 14.4211 8.12429 14.4122Z" fill="black"/>
<path d="M7.95489 17.0822C8.06945 17.0381 8.19717 17.0475 8.31941 17.0466C12.1756 17.047 16.0324 17.047 19.8887 17.0466C20.1611 17.0283 20.427 17.2097 20.4588 17.4427C20.513 17.7047 20.2505 17.9695 19.9397 17.9677C16.0138 17.9695 12.0879 17.9686 8.16209 17.9681C7.88473 17.9742 7.63258 17.7698 7.62435 17.5331C7.60791 17.3428 7.74824 17.153 7.95489 17.0822Z" fill="black"/>
</svg>
