<svg width="45" height="45" viewBox="0 0 45 45" fill="none" xmlns="http://www.w3.org/2000/svg">
<rect width="45" height="44.0217" rx="22.0109" fill="#FEBB26"/>
<path d="M10.6967 12.0154C11.1969 11.3829 11.9378 11.0025 12.6899 11.0019C14.6714 10.9985 16.6523 11.0007 18.6338 11.0007C18.7958 10.9927 18.9553 11.0661 19.067 11.1984C19.7033 11.9145 20.3391 12.6312 20.9728 13.3508C21.0139 13.3915 21.0525 13.4574 21.1165 13.4442C25.0282 13.4453 28.9394 13.4442 32.8511 13.4448C33.1232 13.4459 33.397 13.4339 33.6676 13.4763C34.2836 13.5702 34.865 13.918 35.284 14.4353C35.7232 14.9693 35.9761 15.6843 36 16.4107V30.0505C35.9675 31.1934 35.3231 32.2773 34.3928 32.7334C34.0221 32.9224 33.6133 33.0049 33.2075 32.9998C26.3856 32.9992 19.5636 33.0003 12.7422 32.9992C11.8373 33.0164 10.9461 32.4813 10.4514 31.6271C10.1666 31.167 10.0289 30.609 10 30.0533V13.9506C10.0269 13.2408 10.2712 12.5413 10.6967 12.0154ZM11.201 13.3737C11.0954 13.655 11.0755 13.9644 11.0832 14.2663C11.0827 19.4104 11.0852 24.554 11.0816 29.6981C12.8453 27.6964 14.6191 25.7061 16.3863 23.709C16.6315 23.4191 16.9565 23.214 17.3084 23.1492C17.8076 23.0495 18.3454 23.2306 18.709 23.6316C19.2407 24.2211 19.7637 24.8204 20.2934 25.4128C22.0859 23.391 23.876 21.3663 25.6711 19.348C26.2708 18.6737 27.3352 18.6828 27.9283 19.3623C30.2592 21.992 32.5941 24.617 34.9184 27.2535C34.9138 23.67 34.9189 20.0859 34.9158 16.5024C34.9173 15.973 34.7051 15.4476 34.345 15.1068C34.047 14.8146 33.6504 14.6593 33.2563 14.6668C29.1262 14.6662 24.9957 14.6673 20.8652 14.6662C20.7032 14.6736 20.5437 14.5992 20.4325 14.4674C19.7789 13.7318 19.1269 12.9945 18.4744 12.2577C18.4256 12.1958 18.3418 12.2325 18.2784 12.2216C16.4157 12.2245 14.5536 12.2199 12.6909 12.2233C12.048 12.2216 11.4341 12.6994 11.201 13.3737ZM26.414 20.2371C24.559 22.326 22.707 24.4188 20.8535 26.5093C20.7331 26.6399 20.6229 26.8004 20.4564 26.8576C20.2654 26.9287 20.044 26.8651 19.9049 26.7024C19.2595 25.9765 18.6181 25.2472 17.9711 24.5231C17.7624 24.2819 17.3821 24.2887 17.182 24.5408C15.2589 26.7104 13.3348 28.8783 11.4132 31.0502C11.723 31.5119 12.2308 31.7915 12.7442 31.7772C19.5834 31.7778 26.4227 31.7778 33.2619 31.7772C33.921 31.7984 34.5604 31.3183 34.799 30.6251C34.9676 30.1799 34.9041 29.6884 34.9173 29.2186C34.9107 29.112 34.9458 28.9791 34.8559 28.9046C32.3092 26.0298 29.761 23.1561 27.2138 20.2824C27.0168 20.0217 26.6309 19.9925 26.414 20.2371Z" fill="black"/>
<path d="M14.2525 17.0121C14.8805 16.9494 15.5314 17.1317 16.028 17.5228C16.6191 17.9748 16.9885 18.7029 16.9991 19.4475C17.0208 20.2137 16.6607 20.977 16.0603 21.4519C15.5044 21.9033 14.7474 22.0915 14.0444 21.9578C13.2909 21.8224 12.6177 21.317 12.2724 20.6346C11.9452 20.0021 11.9111 19.2282 12.1791 18.5692C12.5122 17.7197 13.3436 17.0942 14.2525 17.0121ZM14.1317 18.3048C13.6409 18.4508 13.2686 18.9233 13.251 19.4363C13.2223 19.8889 13.4674 20.3415 13.8567 20.5719C14.2261 20.7982 14.7146 20.8093 15.0934 20.5989C15.454 20.4077 15.7067 20.029 15.7437 19.6222C15.7888 19.2036 15.6018 18.7691 15.2669 18.5141C14.9521 18.2644 14.5146 18.1852 14.1317 18.3048Z" fill="black"/>
</svg>
