<svg width="18" height="18" viewBox="0 0 18 18" fill="none" xmlns="http://www.w3.org/2000/svg">
<path d="M5.01467 0.572815H13.5307C14.2703 0.595346 15.0073 0.802042 15.6355 1.19617C16.7585 1.87797 17.5248 3.11488 17.6173 4.42755C17.6218 4.50918 17.628 4.59082 17.6336 4.67245V13.1885C17.613 13.7929 17.4772 14.396 17.2061 14.9384C16.6285 16.1348 15.4507 17.0229 14.1361 17.2309C13.9369 17.2678 13.7348 17.2783 13.5333 17.2914H5.01729C4.30805 17.2695 3.60176 17.0791 2.99082 16.7153C2.37367 16.3535 1.85187 15.8314 1.49039 15.2143C1.12729 14.6046 0.93757 13.8996 0.915039 13.1924V4.67506C0.9281 4.49514 0.933651 4.31424 0.964999 4.13628C1.1041 3.17398 1.60109 2.27112 2.32991 1.62948C3.06167 0.971513 4.03246 0.597632 5.01467 0.572815ZM4.77206 1.98638C4.0207 2.07063 3.31474 2.4801 2.8651 3.08745C2.49938 3.5717 2.30411 4.17775 2.30967 4.78412C2.30869 7.54889 2.30869 10.314 2.30934 13.0787C2.30411 13.6721 2.49057 14.2654 2.84126 14.7444C3.25727 15.322 3.9025 15.7308 4.60487 15.8526C4.90626 15.9101 5.21451 15.8967 5.51982 15.8984C8.15364 15.898 10.7878 15.899 13.4216 15.898C14.0848 15.9039 14.748 15.6688 15.2518 15.2361C15.7586 14.8084 16.107 14.1955 16.2047 13.5388C16.2344 13.3543 16.239 13.1669 16.2399 12.9805C16.2386 10.2379 16.2412 7.49534 16.2386 4.7531C16.2403 4.06934 15.9794 3.38982 15.5176 2.88533C15.0435 2.35667 14.3604 2.02132 13.6512 1.97528C13.4553 1.96189 13.2593 1.96614 13.0631 1.96581C10.4397 1.96548 7.81601 1.96614 5.19263 1.96548C5.05222 1.96679 4.91182 1.97071 4.77206 1.98638Z" fill="#1A1919"/>
<path d="M13.5312 3.39802C13.8 3.32618 14.0978 3.36439 14.3364 3.50937C14.6352 3.68341 14.8325 4.01582 14.8439 4.36162C14.8638 4.75379 14.6398 5.14498 14.2907 5.32457C13.941 5.51429 13.4845 5.47706 13.1707 5.23281C12.8664 5.00424 12.7074 4.60097 12.7769 4.22611C12.8393 3.83459 13.1472 3.49696 13.5312 3.39802Z" fill="#1A1919"/>
<path d="M8.83627 4.77697C9.72117 4.68685 10.6351 4.87787 11.3992 5.33633C12.3135 5.87086 13.0071 6.76883 13.2928 7.7886C13.5397 8.65489 13.4982 9.60184 13.1697 10.4414C12.741 11.5643 11.7996 12.478 10.6629 12.8711C9.78877 13.1833 8.80818 13.1869 7.93013 12.8871C6.98547 12.5691 6.1662 11.897 5.6666 11.0353C5.12815 10.1233 4.96455 9.00134 5.21011 7.97178C5.37468 7.26647 5.72832 6.60556 6.22563 6.07886C6.9009 5.34808 7.84752 4.88081 8.83627 4.77697ZM8.95447 6.16572C8.39022 6.23005 7.8485 6.47332 7.42499 6.85144C6.94367 7.27757 6.61616 7.8748 6.5231 8.51122C6.42351 9.15547 6.55771 9.83433 6.9022 10.3888C7.27282 10.9971 7.88638 11.4523 8.577 11.6277C9.21504 11.7948 9.91219 11.7246 10.5032 11.4311C11.0587 11.1597 11.5178 10.697 11.7845 10.1393C12.0771 9.53686 12.1375 8.82763 11.9573 8.18338C11.7708 7.50517 11.3143 6.90663 10.7106 6.54646C10.1888 6.22874 9.56052 6.09519 8.95447 6.16572Z" fill="#1A1919"/>
</svg>
