<svg width="36" height="27" viewBox="0 0 36 27" fill="none" xmlns="http://www.w3.org/2000/svg">
<path d="M1.05817 1.20791C1.76236 0.438021 2.79937 -0.0103198 3.84339 0.00369085C13.1849 0.00158925 22.5264 0.00439135 31.8686 0.00228975C32.4474 -0.013122 33.0367 0.0464232 33.5762 0.267792C34.9327 0.789689 35.8941 2.15923 35.9375 3.61004V23.2957C35.8934 24.7641 34.9089 26.1476 33.5293 26.6569C33.003 26.8636 32.4327 26.9182 31.8721 26.9042C22.5306 26.9028 13.1891 26.9049 3.84759 26.9028C2.80147 26.9168 1.76236 26.4685 1.05677 25.6965C0.450679 25.0499 0.100337 24.1805 0.0625 23.2971V3.61354C0.0996362 2.72807 0.449277 1.8559 1.05817 1.20791ZM3.58764 1.50844C2.48266 1.5911 1.54795 2.59917 1.55916 3.70951C1.55496 10.1565 1.55916 16.6035 1.55706 23.0513C1.54725 23.4386 1.62012 23.8316 1.8002 24.1777C2.17366 24.9329 2.99977 25.4303 3.84269 25.4085C13.2788 25.4092 22.7156 25.4092 32.1524 25.4085C33.0808 25.438 33.9812 24.8278 34.2972 23.9549C34.478 23.5115 34.4401 23.0267 34.4429 22.5588C34.4415 16.2764 34.445 9.994 34.4408 3.71162C34.4415 2.80302 33.8277 1.93856 32.9715 1.63593C32.5105 1.45309 32.0081 1.50423 31.5246 1.49723C22.2987 1.49723 13.0728 1.49723 3.84759 1.49793C3.76071 1.49793 3.67382 1.50213 3.58764 1.50844Z" fill="#999999"/>
<path d="M10.8883 6.00305C11.7803 5.90847 12.7031 6.14736 13.4332 6.67066C14.295 7.27732 14.8787 8.26297 14.9873 9.31237C15.0973 10.2749 14.8079 11.2739 14.2032 12.0304C13.5845 12.822 12.6344 13.3418 11.6338 13.4329C10.6276 13.5359 9.59063 13.1996 8.82969 12.5348C8.07996 11.8889 7.60279 10.9348 7.54884 9.94495C7.48228 8.94669 7.84313 7.92951 8.52489 7.19606C9.13309 6.52915 9.99002 6.09482 10.8883 6.00305ZM10.7482 7.53932C10.2598 7.65561 9.81836 7.94493 9.50935 8.33863C8.85702 9.14214 8.88364 10.3975 9.57312 11.1702C10.2528 12.0017 11.5568 12.207 12.4571 11.6192C13.3568 11.0826 13.7639 9.8749 13.3638 8.90536C12.9882 7.88398 11.8034 7.2591 10.7482 7.53932Z" fill="#999999"/>
<path d="M21.4572 7.53093C21.5826 7.47769 21.7213 7.47628 21.8558 7.47418C24.798 7.47698 27.7402 7.47348 30.6824 7.47628C31.0817 7.45597 31.4496 7.80133 31.451 8.20204C31.4727 8.61465 31.0986 8.98804 30.6859 8.96842C27.7178 8.97122 24.749 8.96982 21.7809 8.96912C21.4116 8.99154 21.0536 8.71203 21.0017 8.34354C20.9386 8.00939 21.1418 7.65422 21.4572 7.53093Z" fill="#999999"/>
<path d="M21.5904 13.47C21.7459 13.4455 21.9043 13.4532 22.0619 13.4525C24.9375 13.4546 27.8124 13.4511 30.688 13.4546C31.0748 13.4378 31.4336 13.765 31.449 14.1524C31.4889 14.5776 31.1035 14.9713 30.6775 14.9468C27.7143 14.9489 24.7511 14.9475 21.788 14.9475C21.4075 14.9748 21.0389 14.6785 20.9983 14.2967C20.9387 13.9212 21.2169 13.5359 21.5904 13.47Z" fill="#999999"/>
<path d="M8.14176 14.9538C10.0953 14.9398 12.0488 14.9524 14.0023 14.9475C14.4276 14.9419 14.8578 14.9678 15.2684 15.0876C16.475 15.4154 17.4749 16.3941 17.8336 17.5913C18.081 18.3598 17.978 19.1759 18.0018 19.9682C18.0165 20.2351 17.978 20.5314 17.7657 20.7192C17.4721 21.0127 16.9374 20.9826 16.681 20.6554C16.4309 20.3696 16.5219 19.9661 16.5058 19.6193C16.4869 19.0267 16.5808 18.4053 16.3405 17.8435C16.0174 17.021 15.171 16.441 14.2861 16.4438C12.2555 16.4424 10.2249 16.4382 8.19501 16.4459C7.12998 16.4662 6.17144 17.3496 6.06003 18.4074C6.01519 19.0204 6.06283 19.6361 6.03411 20.2498C6.01028 20.6134 5.68026 20.9188 5.31731 20.923C4.88358 20.9496 4.50732 20.5405 4.54726 20.1118C4.57318 19.1857 4.43725 18.2182 4.8009 17.3384C5.3131 15.9758 6.68364 14.9902 8.14176 14.9538Z" fill="#999999"/>
<path d="M21.6007 19.4463C22.5487 19.4113 23.4995 19.4407 24.449 19.4309C26.5279 19.4323 28.6075 19.4295 30.6865 19.4323C31.1202 19.4099 31.507 19.8239 31.4474 20.2561C31.4159 20.6323 31.0641 20.9392 30.6872 20.9244C27.7177 20.9272 24.7482 20.9258 21.7787 20.9251C21.4178 20.9462 21.0661 20.6779 21.0058 20.3192C20.9189 19.9283 21.2062 19.508 21.6007 19.4463Z" fill="#999999"/>
</svg>
