<svg width="25" height="22" viewBox="0 0 25 22" fill="none" xmlns="http://www.w3.org/2000/svg">
<path d="M22.8693 0.0696411H23.1667C23.5012 0.107225 23.8376 0.221217 24.0702 0.448374C24.2956 0.65488 24.4025 0.93862 24.447 1.21947V1.47512C24.4043 1.85633 24.2423 2.21235 24.1129 2.57374C21.9639 8.37574 19.8148 14.1782 17.6658 19.9802C17.5185 20.389 17.2413 20.774 16.8292 21.0032C16.6259 21.1201 16.3905 21.182 16.1533 21.2159H15.8664C15.3359 21.1506 14.8155 20.8975 14.509 20.4981C13.069 17.9915 11.6358 15.4812 10.1971 12.9742C10.1425 12.8834 10.0205 12.8578 9.92823 12.8082C7.21107 11.5506 4.49666 10.288 1.77995 9.02954C1.60281 8.94735 1.4734 8.80651 1.35363 8.66733C1.12556 8.39969 0.977788 8.07548 0.951172 7.73805V7.53939C0.985131 7.34527 1.0402 7.15074 1.15034 6.97976C1.38988 6.59359 1.8185 6.32637 2.27832 6.18842C8.95628 4.18531 15.6342 2.1822 22.3117 0.177437C22.493 0.125811 22.6807 0.0927698 22.8693 0.0696411ZM2.78449 7.34114C2.6147 7.39855 2.40085 7.45926 2.33293 7.62777C2.32054 7.762 2.40911 7.90077 2.52613 7.9809C5.19878 9.22324 7.87464 10.4606 10.5473 11.7034C14.2617 8.36004 17.9783 5.01836 21.6904 1.67296C15.3864 3.55753 9.08706 5.45326 2.78449 7.34114ZM11.5211 12.5802C12.8996 14.9856 14.2759 17.3922 15.6558 19.7972C15.743 19.9042 15.8986 19.9822 16.0486 19.9723C16.2386 19.9095 16.3065 19.7158 16.3703 19.5605C18.4689 13.8907 20.572 8.2221 22.6683 2.55143C18.9484 5.89064 15.2373 9.23811 11.5211 12.5802Z" fill="#212121"/>
</svg>
