<svg width="36" height="27" viewBox="0 0 36 27" fill="none" xmlns="http://www.w3.org/2000/svg">
<path d="M10.7108 1.00272C11.2987 0.342834 12.1922 -0.0035204 13.0774 0.00317891C16.222 -0.00285047 19.3672 0.00384903 22.5117 0.000499382C22.9909 -0.00285027 23.4817 0.00652857 23.9397 0.159943C24.4982 0.334125 24.9911 0.682489 25.3664 1.12129C25.836 1.65791 26.0343 2.37004 26.0548 3.06543C27.8595 3.06677 29.6635 3.06476 31.4682 3.0661C32.0465 3.06342 32.631 3.15721 33.1594 3.39437C34.4835 3.99061 35.4617 5.31774 35.5 6.76211V23.2571C35.4604 24.3954 34.8677 25.4833 33.9619 26.1888C33.2674 26.7468 32.3637 27.0148 31.4716 26.9994C22.468 26.9994 13.4644 27.0007 4.46074 26.998C3.38135 27.0041 2.32178 26.5391 1.58145 25.7741C0.906738 25.1115 0.525977 24.1883 0.5 23.2558V6.82642C0.533496 5.68352 1.12549 4.59019 2.03262 3.88141C2.6916 3.35216 3.54063 3.07414 4.38965 3.06878C6.22988 3.06141 8.07012 3.06878 9.91103 3.06543C9.92334 2.31377 10.1831 1.55809 10.7108 1.00272ZM12.6933 1.74299C12.2195 1.84616 11.8442 2.2508 11.7718 2.71908C11.7068 3.16056 11.7772 3.60875 11.7308 4.05157C11.6617 4.46626 11.2577 4.80725 10.825 4.79318C8.70449 4.79988 6.5833 4.7905 4.46211 4.79787C3.83936 4.79318 3.21797 5.05178 2.8085 5.5147C2.43389 5.91733 2.25273 6.466 2.26299 7.0073C2.26162 12.2308 2.26367 17.4549 2.2623 22.679C2.2623 23.0615 2.24795 23.4561 2.37852 23.8226C2.61094 24.5246 3.2501 25.08 3.98975 25.2207C4.30283 25.2797 4.62344 25.2703 4.94062 25.2703C13.7843 25.2689 22.6279 25.271 31.4723 25.2696C32.2276 25.2957 32.9837 24.9259 33.3897 24.2969C33.6652 23.9009 33.7315 23.4152 33.7698 22.9496C33.7685 17.6337 33.7712 12.3178 33.7685 7.00194C33.7753 6.46868 33.6023 5.92671 33.2346 5.52609C32.8189 5.04575 32.1777 4.78648 31.5399 4.7972C29.6006 4.79318 27.6619 4.79653 25.7232 4.79519C25.4778 4.79251 25.2304 4.81127 24.9877 4.77107C24.6479 4.68666 24.3608 4.39926 24.3034 4.0576C24.261 3.63018 24.3191 3.19942 24.2699 2.772C24.2228 2.38009 23.9726 2.0123 23.6068 1.83946C23.2924 1.67801 22.926 1.69609 22.5808 1.69676C19.5736 1.69743 16.5658 1.69676 13.558 1.69676C13.2695 1.70011 12.9763 1.67801 12.6933 1.74299Z" fill="#999999"/>
<path d="M17.5448 7.03411C19.6619 6.90481 21.8145 7.63571 23.4018 9.01308C24.8531 10.2558 25.8279 12.0197 26.0918 13.8908C26.4472 16.1941 25.711 18.638 24.1087 20.3624C22.6772 21.9535 20.5724 22.9423 18.4095 23.0341C16.2965 23.1553 14.146 22.4217 12.5744 21.031C11.1402 19.7936 10.1763 18.0451 9.9111 16.19C9.62809 14.3451 10.0259 12.4023 11.0383 10.8192C12.4062 8.61916 14.9171 7.15202 17.5448 7.03411ZM17.1483 8.86369C15.3074 9.09079 13.5888 10.152 12.6168 11.7055C11.8047 12.9536 11.4656 14.4864 11.6802 15.9516C11.8853 17.4509 12.6749 18.8698 13.8643 19.8365C14.9212 20.698 16.2569 21.236 17.6323 21.309C18.9571 21.39 20.2997 21.039 21.4201 20.3443C22.721 19.5578 23.7067 18.2903 24.1381 16.8533C24.46 15.7667 24.4614 14.5949 24.1839 13.4989C23.7949 11.9621 22.7729 10.5894 21.39 9.76809C20.1397 8.99767 18.6132 8.66807 17.1483 8.86369Z" fill="#999999"/>
<path d="M29.4958 7.02069C30.4023 6.79761 31.3874 7.49299 31.4598 8.4041C31.5829 9.26898 30.85 10.1272 29.9614 10.1647C29.113 10.2471 28.292 9.56844 28.2278 8.73705C28.1287 7.95726 28.7124 7.17411 29.4958 7.02069Z" fill="#999999"/>
</svg>
