<svg width="22" height="26" viewBox="0 0 22 26" fill="none" xmlns="http://www.w3.org/2000/svg">
<path d="M10.7398 0H10.9381C11.9564 0.0228516 12.9772 0.257461 13.8698 0.749531C15.106 1.43762 16.1263 2.51723 16.6913 3.80504C17.2054 4.99789 17.3012 6.34664 17.0441 7.6116C16.6826 9.35441 15.4732 10.8657 13.9223 11.7447C13.0715 12.2225 12.0995 12.4785 11.1225 12.5125C9.94657 12.5648 8.74699 12.3155 7.72356 11.732C6.21236 10.8657 5.02411 9.40063 4.64708 7.70199C4.35813 6.41875 4.45497 5.0441 4.96797 3.82687C5.52321 2.54871 6.52655 1.47266 7.74519 0.78C8.65222 0.265586 9.6978 0.0218359 10.7398 0ZM10.2252 1.56102C9.10702 1.6702 8.06453 2.23133 7.31151 3.04535C6.65377 3.72328 6.20515 4.6018 6.08257 5.53465C5.92496 6.64777 6.1212 7.83199 6.75421 8.78008C7.44182 9.81398 8.5147 10.6336 9.75651 10.888C10.9061 11.1211 12.1572 10.9941 13.1832 10.4091C14.0964 9.87797 14.8582 9.07105 15.2785 8.10621C15.6643 7.19418 15.7271 6.16484 15.5268 5.20152C15.2728 3.97566 14.4379 2.92145 13.3918 2.24098C12.4668 1.63871 11.3166 1.43711 10.2252 1.56102Z" fill="black"/>
<path d="M2.33893 13.8876C3.10277 13.1447 4.13959 12.6963 5.2032 12.5932C5.56786 12.5633 5.96086 12.5094 6.29771 12.6887C7.02086 13.0528 7.64924 13.5764 8.38063 13.9262C9.02652 14.1999 9.69713 14.4427 10.4017 14.5138C11.3273 14.6219 12.274 14.4676 13.1331 14.1187C14.0958 13.812 14.8452 13.1051 15.7419 12.6699C16.051 12.5176 16.4048 12.5633 16.736 12.5871C17.7934 12.6785 18.8287 13.1071 19.6003 13.8313C20.257 14.4447 20.7159 15.2298 21.0718 16.0418C21.5992 17.3179 21.8367 18.6926 21.95 20.0601C22.0005 21.0854 22.0906 22.1457 21.7537 23.1364C21.4473 24.0871 20.7591 24.9041 19.8789 25.3926C19.1655 25.7979 18.3414 25.969 17.5251 26H4.51765C3.57354 25.9761 2.61398 25.7486 1.82954 25.2134C1.03685 24.6868 0.44762 23.8763 0.193178 22.9683C-0.0679589 22.0731 -0.00306097 21.1311 0.0402044 20.2124C0.117979 19.014 0.320914 17.8191 0.687124 16.6725C1.04767 15.6533 1.55089 14.6534 2.33893 13.8876ZM5.15993 14.1329C4.54289 14.2304 3.94387 14.4924 3.48495 14.9149C3.27686 15.1343 3.06363 15.3527 2.90653 15.6122C2.17566 16.672 1.88362 17.9501 1.69407 19.1994C1.57406 19.955 1.57561 20.7208 1.54677 21.483C1.53028 22.2539 1.73528 23.0714 2.30494 23.629C2.90138 24.2455 3.7909 24.4801 4.63303 24.4755C8.84058 24.4781 13.0481 24.4755 17.2552 24.4765C17.9175 24.4816 18.6036 24.3801 19.1769 24.0342C19.7481 23.6971 20.1766 23.1359 20.3358 22.4976C20.4949 21.9344 20.4501 21.3449 20.4285 20.7685C20.4079 19.5685 20.2173 18.3706 19.8676 17.2209C19.5771 16.349 19.1413 15.4989 18.4573 14.8626C17.8722 14.3604 17.0934 14.0948 16.3219 14.0903C15.6039 14.4782 14.9647 15.0028 14.2137 15.3334C13.4313 15.6807 12.6 15.9377 11.7445 16.0286C10.4816 16.1769 9.19855 15.9265 8.03502 15.4405C7.2341 15.1287 6.55061 14.6011 5.81973 14.1644C5.62813 14.0182 5.37729 14.1223 5.15993 14.1329Z" fill="black"/>
</svg>
