<svg width="25" height="25" viewBox="0 0 25 25" fill="none" xmlns="http://www.w3.org/2000/svg">
<path d="M7.12504 0.406899C8.76069 -0.075439 10.5337 -0.0783239 12.1705 0.398244C13.9163 0.899045 15.4954 1.94219 16.6649 3.32862C17.9486 4.83852 18.7368 6.7673 18.847 8.74857C18.9866 11.0287 18.236 13.3492 16.774 15.1061C17.1836 15.5175 17.5932 15.9283 18.0058 16.3367C18.4517 16.1619 18.9502 16.0996 19.4176 16.2265C19.897 16.35 20.3164 16.6471 20.6413 17.0147C21.6117 17.988 22.5827 18.9602 23.5572 19.9289C24.0562 20.3662 24.4128 21.0009 24.4041 21.6765C24.4065 22.7173 23.6333 23.6808 22.6398 23.9572C22.011 24.1465 21.3036 24.0161 20.7757 23.6295C20.5109 23.457 20.3124 23.2083 20.0885 22.9902C19.2993 22.2021 18.5112 21.4128 17.7225 20.6247C17.4132 20.2987 17.0463 20.0195 16.8247 19.6208C16.4601 19.0311 16.4347 18.2765 16.6984 17.643C16.287 17.2299 15.8757 16.8168 15.462 16.406C14.0346 17.5587 12.2668 18.288 10.4379 18.4542C8.72781 18.6198 6.9733 18.2834 5.44669 17.4953C3.8993 16.7043 2.59482 15.458 1.71151 13.9631C0.711649 12.2842 0.251819 10.285 0.449137 8.33836C0.600875 6.76153 1.18936 5.23316 2.11883 3.95174C3.33505 2.26067 5.12532 0.991358 7.12504 0.406899ZM8.85474 1.93353C6.61732 2.17874 4.53972 3.51036 3.3512 5.41721C2.54231 6.69344 2.1598 8.23046 2.26769 9.73748C2.38942 11.5786 3.23235 13.3567 4.56857 14.6272C5.68901 15.705 7.16196 16.4117 8.70704 16.5935C10.3138 16.7931 11.9783 16.4348 13.3717 15.6132C14.8504 14.7495 16.0234 13.3619 16.5916 11.743C17.1501 10.1794 17.1599 8.42432 16.6032 6.85903C15.991 5.10565 14.6969 3.60325 13.0549 2.73666C11.7781 2.05412 10.2931 1.76852 8.85474 1.93353ZM18.705 18.0532C18.5192 18.1484 18.3571 18.3417 18.3692 18.5603C18.4056 18.7207 18.551 18.8217 18.6525 18.9417C19.6426 19.9352 20.6343 20.927 21.6284 21.9165C21.7709 22.0406 21.9175 22.254 22.1361 22.1819C22.3877 22.104 22.6508 21.8057 22.5158 21.5363C22.3075 21.2703 22.0519 21.0459 21.8182 20.8024C20.9378 19.93 20.0724 19.0433 19.185 18.179C19.0668 18.0445 18.8758 17.9447 18.705 18.0532Z" fill="black"/>
</svg>
