<svg width="17" height="12" viewBox="0 0 17 12" fill="none" xmlns="http://www.w3.org/2000/svg">
<path d="M4.99116 1.68005C6.06953 1.10926 7.27952 0.760988 8.50418 0.759033C9.62425 0.758708 10.7303 1.05583 11.737 1.5367C12.0351 1.69406 12.3443 1.83284 12.6277 2.01659C13.2458 2.38017 13.8237 2.80827 14.3723 3.26894C15.2184 3.9847 15.9889 4.78843 16.6721 5.6609C16.7597 5.76809 16.8243 5.89514 16.8441 6.03328V6.10561C16.8265 6.24667 16.7607 6.37601 16.6715 6.48515C15.9974 7.34524 15.2393 8.14018 14.4059 8.84715C13.4999 9.62058 12.4945 10.2839 11.4011 10.7608C10.587 11.1078 9.71612 11.3339 8.82997 11.3782C7.48966 11.4457 6.15066 11.0824 4.97227 10.4556C4.00043 9.96429 3.11721 9.31107 2.30468 8.58944C1.58207 7.94275 0.917783 7.23089 0.321583 6.46626C0.240135 6.36363 0.182796 6.24211 0.163574 6.11212V6.04012C0.180515 5.90752 0.238181 5.7834 0.321583 5.6798C1.0595 4.73142 1.90363 3.86579 2.83279 3.10408C3.50457 2.56262 4.21806 2.06611 4.99116 1.68005ZM7.07069 2.05047C6.11742 2.29026 5.2329 2.74865 4.4207 3.295C3.2889 4.06713 2.29328 5.02528 1.41396 6.0727C2.42196 7.26803 3.57983 8.35357 4.92079 9.1674C5.60202 9.57627 6.33342 9.91183 7.1062 10.1044C8.01549 10.3481 8.98993 10.3481 9.89954 10.1054C10.874 9.86394 11.779 9.39806 12.6059 8.83672C13.7309 8.06818 14.7187 7.11361 15.5934 6.0727C14.5903 4.88291 13.4389 3.80226 12.1058 2.98973C11.3053 2.50398 10.4303 2.12834 9.50794 1.95111C8.70226 1.80189 7.86106 1.83121 7.07069 2.05047Z" fill="#999999"/>
<path d="M8.06364 2.80583C8.78006 2.70744 9.52808 2.85307 10.1526 3.21893C10.7068 3.53788 11.1632 4.02331 11.4496 4.59475C11.7672 5.21702 11.8718 5.94288 11.7532 6.6303C11.5851 7.65492 10.8951 8.57496 9.96203 9.02846C9.28569 9.36859 8.4888 9.45622 7.75251 9.28323C7.12764 9.1389 6.54968 8.80399 6.10954 8.33778C5.66516 7.86896 5.36087 7.26723 5.25434 6.62965C5.15529 6.05235 5.21198 5.448 5.42244 4.90132C5.83457 3.79135 6.88688 2.95113 8.06364 2.80583ZM8.21285 3.8943C7.57658 3.97608 6.98657 4.35432 6.64677 4.89839C6.38288 5.31019 6.26625 5.81224 6.31772 6.298C6.36626 6.79743 6.5966 7.2757 6.95236 7.62853C7.31986 7.99733 7.82321 8.22896 8.34317 8.2648C8.79993 8.30031 9.26581 8.18531 9.65513 7.94422C10.0363 7.7103 10.3426 7.35715 10.5201 6.94665C10.7518 6.41919 10.7612 5.79921 10.5472 5.26458C10.3719 4.81955 10.0467 4.43577 9.63656 4.19012C9.21369 3.9334 8.70284 3.82719 8.21285 3.8943Z" fill="#999999"/>
</svg>
