<svg width="24" height="24" viewBox="0 0 24 24" fill="none" xmlns="http://www.w3.org/2000/svg">
<path d="M20.4056 0H20.6255C21.18 0.0614062 21.6431 0.429844 21.9666 0.864375C22.4541 1.52016 22.7494 2.29359 22.9922 3.06656C23.5378 4.87828 23.782 6.76594 23.9142 8.64891C23.9634 9.36375 23.9845 10.08 24 10.7963V11.8856C23.948 14.0142 23.7792 16.1503 23.3105 18.2316C23.1005 19.1377 22.8427 20.0414 22.4288 20.8777C22.1306 21.4641 21.7397 22.0584 21.1294 22.3542C20.5903 22.6209 19.9125 22.5042 19.463 22.1156C18.2728 21.1383 17.0789 20.1572 15.7692 19.3416C14.8823 18.7842 13.9523 18.2911 12.9727 17.918C12.1706 17.6123 11.3386 17.3869 10.4944 17.2331C9.89766 18.9698 9.30656 20.7084 8.70938 22.4452C8.51297 23.0138 8.09297 23.5055 7.54875 23.7675C7.28906 23.8988 7.00172 23.9616 6.71438 24H6.35531C5.79281 23.9648 5.24391 23.7272 4.84688 23.325C4.41891 22.9027 4.17188 22.3064 4.17281 21.705C4.17047 20.1272 4.17281 18.5494 4.17141 16.972C3.77625 16.9762 3.37734 16.9748 2.99016 16.8848C2.04188 16.6814 1.18453 16.0955 0.645938 15.2897C0.261094 14.7267 0.0482812 14.0573 0 13.3795V9.17109C0.05625 8.30156 0.404531 7.45078 0.999844 6.81094C1.57969 6.17531 2.38125 5.74453 3.23344 5.62031C3.65344 5.55422 4.07953 5.58703 4.50234 5.57578C5.40703 5.57531 6.31219 5.57016 7.21688 5.57203C8.54016 5.57578 9.86859 5.46094 11.1595 5.16141C12.6061 4.83703 13.9856 4.2525 15.2597 3.49828C16.6706 2.66859 17.9695 1.66313 19.2155 0.605156C19.5309 0.279844 19.9425 0.0229688 20.4056 0ZM20.2134 1.59891C20.0002 1.84031 19.8488 2.12859 19.7142 2.41875C19.433 3.04031 19.2431 3.69797 19.0809 4.35844C18.8325 5.39297 18.6731 6.44719 18.5616 7.50469C19.1902 7.71375 19.7667 8.07797 20.2186 8.56359C20.8083 9.18891 21.1814 10.0144 21.262 10.8703C21.3497 11.7661 21.113 12.6881 20.6072 13.433C20.122 14.16 19.3875 14.7103 18.5592 14.9873C18.7097 16.3687 18.9277 17.7502 19.3392 19.08C19.5248 19.658 19.7362 20.2397 20.0859 20.7413C20.1942 20.88 20.3077 21.0422 20.4844 21.0956C20.6611 21.0422 20.7741 20.8791 20.8833 20.7403C21.2156 20.265 21.42 19.7152 21.6014 19.1681C22.193 17.2758 22.4184 15.2916 22.538 13.32C22.6556 10.9533 22.5872 8.57203 22.2455 6.22547C22.0641 5.04562 21.8245 3.86531 21.3937 2.74828C21.2339 2.35313 21.0544 1.95703 20.7802 1.62703C20.6967 1.53656 20.6077 1.43344 20.4825 1.40437C20.3714 1.43156 20.2894 1.51922 20.2134 1.59891ZM13.942 5.7375C11.97 6.57656 9.82312 6.94078 7.68797 6.97594C7.6875 9.83625 7.68656 12.6966 7.68844 15.5573C9.09891 15.5808 10.5113 15.743 11.8786 16.0959C14.0602 16.6434 16.0561 17.7516 17.8664 19.0641C17.7248 18.5433 17.603 18.0169 17.5027 17.4867C17.0231 14.9236 16.9116 12.3038 16.9983 9.70219C17.0864 7.60641 17.3091 5.50359 17.8566 3.47391C16.6313 4.35563 15.3347 5.14875 13.942 5.7375ZM1.65609 8.31609C1.48406 8.65781 1.40297 9.04125 1.40672 9.42328C1.40578 10.5792 1.40672 11.7356 1.40625 12.8916C1.4025 13.192 1.40578 13.4972 1.48781 13.7887C1.68328 14.5397 2.26969 15.173 3.00234 15.4275C3.27234 15.5245 3.55969 15.5662 3.84609 15.5653C4.65797 15.5658 5.46938 15.5658 6.28078 15.5653C6.28172 12.705 6.28125 9.84469 6.28125 6.98438C5.4375 6.98578 4.59422 6.98156 3.75047 6.98672C2.87625 6.99422 2.03766 7.53094 1.65609 8.31609ZM18.4416 13.5187C18.9914 13.2553 19.4367 12.7842 19.6739 12.2231C19.8998 11.6963 19.9364 11.0906 19.7719 10.5417C19.5741 9.86203 19.0772 9.28125 18.4434 8.97C18.352 10.4841 18.3539 12.0042 18.4416 13.5187ZM5.57812 16.9688C5.57859 18.547 5.57719 20.1258 5.57859 21.7041C5.57625 21.9942 5.72859 22.2787 5.97 22.44C6.20813 22.6045 6.52125 22.6298 6.79547 22.5548C7.08094 22.4756 7.29984 22.2356 7.39031 21.9586C7.95188 20.3194 8.5125 18.6797 9.07312 17.04C7.91156 16.927 6.74344 16.9688 5.57812 16.9688Z" fill="#212121"/>
</svg>
