<svg width="99" height="99" viewBox="0 0 99 99" fill="none" xmlns="http://www.w3.org/2000/svg">
<path d="M47.9996 0.398315H50.6663C57.7693 0.601532 64.834 2.30395 71.197 5.47874C80.8939 10.2793 88.9209 18.3696 93.6199 28.1183C96.6432 34.3221 98.2651 41.1721 98.5028 48.0642V50.7118C98.2708 58.6602 96.162 66.5703 92.2223 73.4912C88.6545 79.8523 83.6431 85.3967 77.6808 89.5971C72.376 93.3509 66.3217 96.0406 59.9683 97.4152C56.9181 98.1111 53.7932 98.4275 50.6721 98.5559H48.1894C39.6351 98.322 31.1479 95.8527 23.8532 91.3705C13.9282 85.3142 6.25576 75.6461 2.70905 64.5631C1.27119 60.1537 0.525426 55.5372 0.345215 50.9073V48.068C0.487083 44.6747 0.8916 41.2871 1.69872 37.9858C4.56292 25.8599 12.3024 14.9973 22.7796 8.26818C30.243 3.36988 39.0887 0.689721 47.9996 0.398315ZM46.3815 5.42122C39.6389 5.86983 33.0056 7.902 27.1775 11.3222C20.4196 15.2542 14.7468 21.021 10.9182 27.8364C7.6476 33.6204 5.73046 40.1598 5.33937 46.7931C4.95786 53.0047 5.90492 59.2967 8.10963 65.1171C10.2396 70.742 13.539 75.9202 17.7337 80.2319C23.6864 86.3859 31.47 90.7589 39.8383 92.5898C47.5548 94.3114 55.7352 93.9164 63.2447 91.4318C70.2154 89.1543 76.5784 85.0746 81.5936 79.7315C86.8773 74.1296 90.6655 67.1244 92.4101 59.6226C94.4845 50.8785 93.8097 41.4999 90.4681 33.1546C86.1698 22.2154 77.2858 13.1971 66.4291 8.70145C60.1217 6.07113 53.1969 4.93235 46.3815 5.42122Z" fill="white"/>
<path d="M37.4227 28.3176C38.3947 28.0933 39.4223 28.3675 40.2237 28.9407C48.8949 34.719 57.5623 40.5011 66.2335 46.2793C66.9755 46.7299 67.6791 47.3184 67.9992 48.1524C68.653 49.6382 68.0606 51.5131 66.686 52.3701C57.9093 58.2289 49.125 64.0762 40.3483 69.933C39.5546 70.5139 38.5481 70.8513 37.5627 70.6615C35.9753 70.4142 34.6793 68.9361 34.7042 67.318C34.6947 55.426 34.6966 43.534 34.7042 31.6439C34.6774 30.0699 35.8929 28.6263 37.4227 28.3176ZM39.6102 34.4333C39.6045 44.4619 39.6064 54.4924 39.6102 64.5209C47.1407 59.5172 54.6598 54.4943 62.1807 49.4771C54.6578 44.46 47.1407 39.4371 39.6102 34.4333Z" fill="white"/>
</svg>
