<svg width="24" height="24" viewBox="0 0 24 24" fill="none" xmlns="http://www.w3.org/2000/svg">
<path d="M2.50547 0H21.4927C22.1653 0.0229688 22.8253 0.313594 23.2861 0.80625C23.7234 1.26 23.9761 1.87828 24 2.50688V16.4714C23.9719 17.1 23.7155 17.7159 23.2762 18.1678C22.8858 18.5766 22.3575 18.8522 21.7978 18.9333C21.5648 18.9684 21.3291 18.9656 21.0942 18.9661C19.2127 18.9647 17.3306 18.967 15.4491 18.9647C14.7773 20.2959 14.1164 21.6323 13.4456 22.9636C13.1845 23.4811 12.7116 23.9377 12.1125 24H11.8941C11.3044 23.9428 10.8328 23.4998 10.5698 22.9936C9.89109 21.6525 9.22969 20.303 8.54859 18.9633C6.57422 18.968 4.59937 18.9656 2.625 18.9647C1.97344 18.9708 1.32281 18.7275 0.84375 18.2841C0.334688 17.8266 0.0304687 17.1595 0 16.477V2.50734C0.0229688 1.87875 0.276094 1.26047 0.713437 0.806719C1.17469 0.315937 1.83328 0.0239062 2.50547 0ZM1.40719 2.57531C1.40625 7.18687 1.40484 11.798 1.40766 16.4095C1.40859 17.0138 1.94344 17.5505 2.54719 17.5566C4.60406 17.5631 6.66141 17.5575 8.71828 17.5594C8.90578 17.5622 9.10547 17.5369 9.28031 17.6227C9.43922 17.6911 9.56016 17.827 9.63422 17.9817C10.3116 19.3364 10.9889 20.6916 11.6663 22.0462C11.7619 22.2356 11.8458 22.4367 12 22.5881C12.0928 22.4925 12.1683 22.3823 12.2259 22.2628C12.945 20.8252 13.6627 19.3875 14.3822 17.9503C14.4956 17.7188 14.7436 17.558 15.0033 17.5598C17.1117 17.5584 19.2202 17.5598 21.3286 17.5594C21.5372 17.5631 21.7495 17.5303 21.9366 17.4347C22.3373 17.2411 22.6031 16.8061 22.5933 16.3608C22.5933 11.7661 22.5947 7.17141 22.5928 2.57672C22.6031 1.95422 22.0472 1.39594 21.4242 1.40719C15.1416 1.40578 8.85891 1.40578 2.57625 1.40719C1.95422 1.39688 1.39641 1.95281 1.40719 2.57531Z" fill="black"/>
<path d="M11.7838 3.02439C12.3421 2.9686 12.9201 3.13407 13.3598 3.48423C13.8838 3.89017 14.2049 4.5422 14.2068 5.20548C14.2091 6.29814 14.2087 7.39079 14.2068 8.48345C14.2054 9.15095 13.8815 9.8086 13.3513 10.2141C12.8699 10.5924 12.2259 10.7531 11.623 10.6458C10.9916 10.5408 10.4193 10.1414 10.0963 9.59017C9.89008 9.24376 9.78648 8.84063 9.78977 8.43845C9.78883 7.37485 9.78883 6.31079 9.78977 5.2472C9.78883 4.92751 9.85211 4.60735 9.98477 4.31626C10.2984 3.6061 11.0104 3.09329 11.7838 3.02439ZM11.8321 4.43626C11.4763 4.5061 11.1951 4.84267 11.1965 5.20689C11.1937 6.28314 11.1965 7.35985 11.1951 8.4361C11.1895 8.63907 11.2574 8.84345 11.3924 8.99579C11.6029 9.2461 11.9732 9.34126 12.2784 9.22267C12.5976 9.10829 12.8174 8.77642 12.802 8.43798C12.8005 7.36079 12.8038 6.28313 12.8005 5.20595C12.808 4.72032 12.3037 4.32001 11.8321 4.43626Z" fill="black"/>
<path d="M11.7356 12.3033C12.308 12.2329 12.9051 12.3975 13.358 12.7551C13.8609 13.1428 14.1792 13.7568 14.2055 14.3915C14.2416 15.0572 13.9523 15.7293 13.4461 16.1629C12.9919 16.5623 12.3675 16.7573 11.7666 16.6903C11.0986 16.6237 10.4756 16.229 10.1241 15.6576C9.75843 15.0792 9.6914 14.3264 9.94406 13.6908C10.2291 12.9473 10.9439 12.3918 11.7356 12.3033ZM11.8341 13.7095C11.5734 13.7634 11.347 13.9561 11.2523 14.2045C11.0592 14.6526 11.3775 15.2142 11.858 15.285C12.3342 15.3881 12.825 14.97 12.803 14.4848C12.8128 13.9968 12.3084 13.5933 11.8341 13.7095Z" fill="black"/>
</svg>
