<svg width="24" height="21" viewBox="0 0 24 21" fill="none" xmlns="http://www.w3.org/2000/svg">
<path d="M8.46178 0.171001C8.87194 0.0317824 9.3435 0.365064 9.3599 0.795376C9.36647 1.281 9.36178 1.76709 9.36225 2.25319C9.36928 2.58975 9.10537 2.90569 8.77069 2.95303C8.37506 3.02803 7.96865 2.69756 7.95881 2.29631C7.95365 1.81397 7.9574 1.33163 7.95694 0.849751C7.95178 0.544595 8.1674 0.253032 8.46178 0.171001Z" fill="white"/>
<path d="M7.12035 4.62227C8.25051 4.2979 9.48379 4.34055 10.5877 4.74696C12 5.2579 13.1789 6.36415 13.793 7.73337C14.5571 7.73337 15.3216 7.89696 16.0149 8.21946C17.2224 8.77259 18.2016 9.79774 18.6999 11.0287C19.515 10.9677 20.3452 11.1074 21.0905 11.4449C22.0346 11.8677 22.838 12.5966 23.3513 13.4948C23.7572 14.197 23.9752 15.0018 24 15.8113V16.192C23.9489 16.8651 23.7886 17.534 23.4807 18.1373C23.0705 18.959 22.425 19.6612 21.6408 20.1388C20.956 20.5621 20.1629 20.7988 19.3618 20.8579C16.111 20.8645 12.8607 20.8504 9.60988 20.8607C9.1702 20.8579 8.72676 20.8781 8.29176 20.7988C7.45176 20.6577 6.6652 20.226 6.09004 19.5984C5.44316 18.9009 5.05363 17.969 5.02176 17.0179C4.98613 16.2262 5.22426 15.4415 5.63301 14.7684C4.25957 13.8946 3.29582 12.4035 3.08676 10.7868C2.90488 9.47243 3.2077 8.09712 3.93332 6.98524C4.66457 5.84805 5.81769 4.98837 7.12035 4.62227ZM7.09598 6.11477C6.06098 6.52399 5.20691 7.36259 4.7752 8.38774C4.35801 9.3604 4.3327 10.4924 4.70066 11.4843C5.04426 12.426 5.73848 13.2304 6.61363 13.7179C7.17238 13.296 7.8441 13.0359 8.53785 12.9501C8.54535 12.0482 8.79191 11.1496 9.24426 10.3696C9.91035 9.20524 11.0391 8.32305 12.3254 7.94524C11.8275 7.07805 11.0194 6.3918 10.0754 6.05805C9.1191 5.71493 8.0377 5.73227 7.09598 6.11477ZM13.2919 9.17524C12.5457 9.27274 11.8327 9.59852 11.2674 10.0945C10.3074 10.9227 9.8002 12.2418 9.97457 13.4999C10.0369 13.8074 9.87895 14.1449 9.59254 14.2785C9.36566 14.4004 9.10457 14.3212 8.86176 14.3399C7.9191 14.3741 7.03457 14.9849 6.64738 15.8413C6.33801 16.5131 6.36238 17.317 6.67738 17.9816C6.96473 18.6027 7.50707 19.1066 8.16004 19.3199C8.47363 19.4287 8.80832 19.4587 9.13879 19.4545C12.5152 19.4507 15.8911 19.4634 19.2675 19.4423C20.6086 19.3977 21.8518 18.4785 22.3407 17.2368C22.6519 16.4713 22.6744 15.5952 22.4096 14.8129C22.1569 14.0591 21.6375 13.3991 20.9663 12.9735C20.2904 12.5366 19.4593 12.3468 18.66 12.4471C18.4205 12.4776 18.1632 12.561 17.9325 12.4462C17.6911 12.3449 17.5552 12.1026 17.4994 11.8579C17.2257 10.9602 16.605 10.177 15.8002 9.69602C15.0554 9.24462 14.1549 9.05993 13.2919 9.17524Z" fill="white"/>
<path d="M0.207656 4.94194C0.419062 4.72303 0.775312 4.67288 1.04062 4.82147C1.44937 5.05397 1.85578 5.29069 2.26312 5.52553C2.45297 5.63288 2.595 5.82647 2.62266 6.04491C2.66156 6.29522 2.55375 6.56288 2.34562 6.70959C2.12156 6.87975 1.79625 6.8896 1.55812 6.74288C1.15219 6.50663 0.743437 6.27459 0.338906 6.03694C0.150937 5.92631 0.035625 5.72475 0 5.51381V5.34272C0.0370312 5.196 0.0923437 5.046 0.207656 4.94194Z" fill="white"/>
<path d="M16.4243 4.76193C16.7674 4.65693 17.1677 4.86224 17.2783 5.20443C17.3908 5.5124 17.2535 5.88318 16.969 6.04536C16.5527 6.28677 16.1369 6.52865 15.7183 6.76583C15.4085 6.93693 14.9866 6.8249 14.7996 6.52583C14.5868 6.21318 14.6927 5.74396 15.0171 5.55083C15.3837 5.33802 15.7502 5.12568 16.1177 4.91427C16.2166 4.85755 16.3132 4.7924 16.4243 4.76193Z" fill="white"/>
<path d="M1.40672 13.4071C1.55062 13.3222 1.69922 13.2266 1.87125 13.2186C2.18859 13.1863 2.51016 13.4 2.59922 13.7066C2.69719 14.008 2.56219 14.3614 2.28797 14.5203C1.89328 14.7538 1.49344 14.9788 1.09734 15.2103C0.929531 15.3125 0.723281 15.3557 0.531562 15.305C0.248437 15.2394 0.0384375 14.9853 0 14.7013V14.555C0.0323437 14.331 0.16125 14.121 0.361875 14.0108C0.710625 13.8102 1.05844 13.6082 1.40672 13.4071Z" fill="white"/>
</svg>
