<svg width="19" height="15" viewBox="0 0 19 15" fill="none" xmlns="http://www.w3.org/2000/svg">
<path d="M5.42177 0.302508C6.62733 0.255018 7.8336 0.220825 9.03988 0.205628C9.68484 0.185493 10.3294 0.212087 10.9741 0.219685C11.8654 0.229943 12.7557 0.268315 13.6467 0.296429C14.2902 0.331002 14.9338 0.369754 15.5774 0.406986C15.8933 0.441938 16.2118 0.485249 16.5137 0.598085C17.0595 0.797163 17.5513 1.18202 17.8806 1.69491C18.2162 2.25719 18.3614 2.92129 18.4567 3.57399C18.5487 4.61497 18.5849 5.66051 18.6011 6.70567V8.4985C18.5853 9.39739 18.5554 10.2967 18.4883 11.1933C18.4753 11.6013 18.3821 11.9987 18.2894 12.3927C18.1871 12.7718 18.0525 13.1464 17.8465 13.4751C17.521 13.9709 17.0451 14.3504 16.5105 14.54C16.2093 14.6505 15.8912 14.6897 15.576 14.7197C14.698 14.7672 13.8203 14.8337 12.9413 14.8538C12.0858 14.8868 11.2299 14.9047 10.3737 14.9161C9.36675 14.9454 8.36012 14.8929 7.35313 14.8789C6.3458 14.8466 5.33811 14.8207 4.33148 14.76C3.77931 14.717 3.218 14.6809 2.68586 14.5035C2.06094 14.2927 1.50138 13.8261 1.19771 13.1935C0.95308 12.6997 0.836741 12.1469 0.753089 11.5986C0.659245 10.5683 0.624097 9.53302 0.605469 8.49812V6.70947C0.619879 5.80298 0.647646 4.89649 0.716887 3.99304C0.728837 3.68531 0.771015 3.38023 0.843068 3.08238C0.919338 2.70018 1.03146 2.32444 1.19595 1.97529C1.44445 1.43391 1.88168 1.01144 2.37586 0.740175C2.77373 0.522481 3.21976 0.440798 3.66016 0.403186C4.24748 0.370133 4.8348 0.336321 5.42177 0.302508ZM8.91053 1.34767C7.77034 1.36134 6.63015 1.39592 5.49065 1.43961C4.91599 1.47228 4.34132 1.50609 3.76701 1.53839C3.49004 1.5551 3.21343 1.60563 2.95228 1.70859C2.69325 1.82142 2.46514 2.01062 2.28272 2.23782C2.12807 2.43537 2.05777 2.6865 1.97307 2.92357C1.86306 3.30881 1.778 3.7062 1.76605 4.11082C1.65428 5.60086 1.65006 7.09698 1.66482 8.59082C1.67255 9.51517 1.71895 10.4384 1.78925 11.3593C1.83915 11.8065 1.94706 12.2475 2.1235 12.6563C2.22683 12.8839 2.40082 13.0648 2.59202 13.2065C2.88867 13.4234 3.24999 13.4967 3.599 13.5435C3.92236 13.5966 4.24994 13.6099 4.57576 13.6339C5.93457 13.7045 7.29444 13.7402 8.6543 13.7676C9.08803 13.7737 9.5214 13.7961 9.95512 13.7832C10.9273 13.7668 11.8995 13.7551 12.871 13.7159C13.7412 13.6958 14.6094 13.632 15.4786 13.5852C15.7858 13.5579 16.1004 13.515 16.3822 13.3713C16.6905 13.2023 16.9678 12.936 17.1035 12.5864C17.2954 12.0903 17.423 11.5603 17.4416 11.0215C17.5252 9.88521 17.5513 8.74469 17.5467 7.60531C17.5509 6.5271 17.5316 5.44851 17.4574 4.37334C17.4356 3.7157 17.34 3.05084 17.0747 2.45285C16.9204 2.13676 16.6455 1.90615 16.3524 1.75266C15.9102 1.54256 15.4188 1.53801 14.9454 1.51141C13.1553 1.39326 11.3621 1.36134 9.56955 1.33665C9.34988 1.33931 9.1302 1.34425 8.91053 1.34767Z" fill="#1A1919"/>
<path d="M7.85492 4.27566C8.09181 4.19588 8.33714 4.29086 8.53995 4.42459C9.80386 5.17379 11.0692 5.91995 12.3327 6.66915C12.479 6.75615 12.6094 6.88228 12.6789 7.04907C12.7949 7.30513 12.7647 7.62844 12.6041 7.85488C12.5053 8.00305 12.3528 8.09233 12.2066 8.17553C10.9398 8.90953 9.67557 9.6481 8.40849 10.3806C8.16211 10.5306 7.83945 10.5109 7.61345 10.3255C7.41733 10.1743 7.31259 9.91328 7.31751 9.65645C7.31645 8.12348 7.3154 6.59051 7.31821 5.05753C7.30731 4.70421 7.53753 4.36456 7.85492 4.27566ZM8.37194 5.62589C8.37089 6.78654 8.37053 7.9472 8.37194 9.10823C9.36451 8.53455 10.3539 7.95594 11.3458 7.38188C10.3525 6.80022 9.36451 6.20869 8.37194 5.62589Z" fill="#1A1919"/>
</svg>
