<svg width="543" height="400" viewBox="0 0 543 400" fill="none" xmlns="http://www.w3.org/2000/svg">
<rect width="543" height="400" fill="url(#paint0_linear_29_9943)" fill-opacity="0.85"/>
<path d="M30.8359 319.81C31.3292 319.81 31.7592 319.75 32.1259 319.63C32.4925 319.503 32.7959 319.327 33.0359 319.1C33.2825 318.867 33.4659 318.587 33.5859 318.26C33.7059 317.927 33.7659 317.557 33.7659 317.15C33.7659 316.763 33.7059 316.413 33.5859 316.1C33.4659 315.787 33.2859 315.52 33.0459 315.3C32.8059 315.08 32.5025 314.913 32.1359 314.8C31.7692 314.68 31.3359 314.62 30.8359 314.62H28.8259V319.81H30.8359ZM30.8359 312.54C31.8025 312.54 32.6392 312.653 33.3459 312.88C34.0525 313.107 34.6359 313.423 35.0959 313.83C35.5559 314.237 35.8959 314.723 36.1159 315.29C36.3425 315.857 36.4559 316.477 36.4559 317.15C36.4559 317.85 36.3392 318.493 36.1059 319.08C35.8725 319.66 35.5225 320.16 35.0559 320.58C34.5892 321 34.0025 321.327 33.2959 321.56C32.5959 321.793 31.7759 321.91 30.8359 321.91H28.8259V327H26.1359V312.54H30.8359ZM44.2699 320.69C44.2699 320.37 44.2233 320.07 44.1299 319.79C44.0433 319.503 43.9099 319.253 43.7299 319.04C43.5499 318.827 43.3199 318.66 43.0399 318.54C42.7666 318.413 42.4466 318.35 42.0799 318.35C41.3666 318.35 40.8033 318.553 40.3899 318.96C39.9833 319.367 39.7233 319.943 39.6099 320.69H44.2699ZM39.5599 322.18C39.5999 322.707 39.6933 323.163 39.8399 323.55C39.9866 323.93 40.1799 324.247 40.4199 324.5C40.6599 324.747 40.9433 324.933 41.2699 325.06C41.6033 325.18 41.9699 325.24 42.3699 325.24C42.7699 325.24 43.1133 325.193 43.3999 325.1C43.6933 325.007 43.9466 324.903 44.1599 324.79C44.3799 324.677 44.5699 324.573 44.7299 324.48C44.8966 324.387 45.0566 324.34 45.2099 324.34C45.4166 324.34 45.5699 324.417 45.6699 324.57L46.3799 325.47C46.1066 325.79 45.7999 326.06 45.4599 326.28C45.1199 326.493 44.7633 326.667 44.3899 326.8C44.0233 326.927 43.6466 327.017 43.2599 327.07C42.8799 327.123 42.5099 327.15 42.1499 327.15C41.4366 327.15 40.7733 327.033 40.1599 326.8C39.5466 326.56 39.0133 326.21 38.5599 325.75C38.1066 325.283 37.7499 324.71 37.4899 324.03C37.2299 323.343 37.0999 322.55 37.0999 321.65C37.0999 320.95 37.2133 320.293 37.4399 319.68C37.6666 319.06 37.9899 318.523 38.4099 318.07C38.8366 317.61 39.3533 317.247 39.9599 316.98C40.5733 316.713 41.2633 316.58 42.0299 316.58C42.6766 316.58 43.2733 316.683 43.8199 316.89C44.3666 317.097 44.8366 317.4 45.2299 317.8C45.6233 318.193 45.9299 318.68 46.1499 319.26C46.3766 319.833 46.4899 320.49 46.4899 321.23C46.4899 321.603 46.4499 321.857 46.3699 321.99C46.2899 322.117 46.1366 322.18 45.9099 322.18H39.5599ZM50.6735 318.52C50.9935 317.907 51.3735 317.427 51.8135 317.08C52.2535 316.727 52.7735 316.55 53.3735 316.55C53.8469 316.55 54.2269 316.653 54.5135 316.86L54.3535 318.71C54.3202 318.83 54.2702 318.917 54.2035 318.97C54.1435 319.017 54.0602 319.04 53.9535 319.04C53.8535 319.04 53.7035 319.023 53.5035 318.99C53.3102 318.957 53.1202 318.94 52.9335 318.94C52.6602 318.94 52.4169 318.98 52.2035 319.06C51.9902 319.14 51.7969 319.257 51.6235 319.41C51.4569 319.557 51.3069 319.737 51.1735 319.95C51.0469 320.163 50.9269 320.407 50.8135 320.68V327H48.3435V316.74H49.7935C50.0469 316.74 50.2235 316.787 50.3235 316.88C50.4235 316.967 50.4902 317.127 50.5235 317.36L50.6735 318.52ZM58.3645 316.74V327H55.8845V316.74H58.3645ZM58.7045 313.75C58.7045 313.963 58.6611 314.163 58.5745 314.35C58.4878 314.537 58.3711 314.7 58.2245 314.84C58.0845 314.98 57.9178 315.093 57.7245 315.18C57.5311 315.26 57.3245 315.3 57.1045 315.3C56.8911 315.3 56.6878 315.26 56.4945 315.18C56.3078 315.093 56.1445 314.98 56.0045 314.84C55.8645 314.7 55.7511 314.537 55.6645 314.35C55.5845 314.163 55.5445 313.963 55.5445 313.75C55.5445 313.53 55.5845 313.323 55.6645 313.13C55.7511 312.937 55.8645 312.77 56.0045 312.63C56.1445 312.49 56.3078 312.38 56.4945 312.3C56.6878 312.213 56.8911 312.17 57.1045 312.17C57.3245 312.17 57.5311 312.213 57.7245 312.3C57.9178 312.38 58.0845 312.49 58.2245 312.63C58.3711 312.77 58.4878 312.937 58.5745 313.13C58.6611 313.323 58.7045 313.53 58.7045 313.75ZM63.1926 318C63.3993 317.793 63.6159 317.603 63.8426 317.43C64.0759 317.25 64.3193 317.1 64.5726 316.98C64.8326 316.853 65.1093 316.757 65.4026 316.69C65.6959 316.617 66.0159 316.58 66.3626 316.58C66.9226 316.58 67.4193 316.677 67.8526 316.87C68.2859 317.057 68.6459 317.323 68.9326 317.67C69.2259 318.01 69.4459 318.42 69.5926 318.9C69.7459 319.373 69.8226 319.897 69.8226 320.47V327H67.3526V320.47C67.3526 319.843 67.2093 319.36 66.9226 319.02C66.6359 318.673 66.1993 318.5 65.6126 318.5C65.1859 318.5 64.7859 318.597 64.4126 318.79C64.0393 318.983 63.6859 319.247 63.3526 319.58V327H60.8826V316.74H62.3926C62.7126 316.74 62.9226 316.89 63.0226 317.19L63.1926 318ZM75.9217 321.62C76.2283 321.62 76.495 321.58 76.7217 321.5C76.9483 321.413 77.135 321.297 77.2817 321.15C77.435 321.003 77.5483 320.827 77.6217 320.62C77.7017 320.413 77.7417 320.187 77.7417 319.94C77.7417 319.433 77.5883 319.033 77.2817 318.74C76.9817 318.44 76.5283 318.29 75.9217 318.29C75.315 318.29 74.8583 318.44 74.5517 318.74C74.2517 319.033 74.1017 319.433 74.1017 319.94C74.1017 320.18 74.1383 320.403 74.2117 320.61C74.2917 320.817 74.405 320.997 74.5517 321.15C74.705 321.297 74.895 321.413 75.1217 321.5C75.355 321.58 75.6217 321.62 75.9217 321.62ZM78.7117 327.46C78.7117 327.26 78.6517 327.097 78.5317 326.97C78.4117 326.843 78.2483 326.747 78.0417 326.68C77.835 326.607 77.5917 326.553 77.3117 326.52C77.0383 326.487 76.745 326.463 76.4317 326.45C76.125 326.43 75.805 326.413 75.4717 326.4C75.145 326.387 74.825 326.36 74.5117 326.32C74.2383 326.473 74.015 326.653 73.8417 326.86C73.675 327.067 73.5917 327.307 73.5917 327.58C73.5917 327.76 73.635 327.927 73.7217 328.08C73.815 328.24 73.9583 328.377 74.1517 328.49C74.3517 328.603 74.6083 328.69 74.9217 328.75C75.235 328.817 75.6183 328.85 76.0717 328.85C76.5317 328.85 76.9283 328.813 77.2617 328.74C77.595 328.673 77.8683 328.577 78.0817 328.45C78.3017 328.33 78.4617 328.183 78.5617 328.01C78.6617 327.843 78.7117 327.66 78.7117 327.46ZM81.1717 317.09V318.01C81.1717 318.303 80.995 318.483 80.6417 318.55L79.7217 318.72C79.8617 319.073 79.9317 319.46 79.9317 319.88C79.9317 320.387 79.8283 320.847 79.6217 321.26C79.4217 321.667 79.1417 322.013 78.7817 322.3C78.4217 322.587 77.995 322.81 77.5017 322.97C77.015 323.123 76.4883 323.2 75.9217 323.2C75.7217 323.2 75.5283 323.19 75.3417 323.17C75.155 323.15 74.9717 323.123 74.7917 323.09C74.4717 323.283 74.3117 323.5 74.3117 323.74C74.3117 323.947 74.405 324.1 74.5917 324.2C74.785 324.293 75.0383 324.36 75.3517 324.4C75.665 324.44 76.0217 324.467 76.4217 324.48C76.8217 324.487 77.2317 324.507 77.6517 324.54C78.0717 324.573 78.4817 324.633 78.8817 324.72C79.2817 324.8 79.6383 324.93 79.9517 325.11C80.265 325.29 80.515 325.537 80.7017 325.85C80.895 326.157 80.9917 326.553 80.9917 327.04C80.9917 327.493 80.8783 327.933 80.6517 328.36C80.4317 328.787 80.1083 329.167 79.6817 329.5C79.2617 329.833 78.7417 330.1 78.1217 330.3C77.5083 330.507 76.8083 330.61 76.0217 330.61C75.2483 330.61 74.575 330.533 74.0017 330.38C73.4283 330.233 72.9517 330.033 72.5717 329.78C72.1917 329.533 71.9083 329.247 71.7217 328.92C71.535 328.593 71.4417 328.253 71.4417 327.9C71.4417 327.42 71.585 327.02 71.8717 326.7C72.165 326.373 72.565 326.113 73.0717 325.92C72.7983 325.78 72.5817 325.593 72.4217 325.36C72.2617 325.127 72.1817 324.82 72.1817 324.44C72.1817 324.287 72.2083 324.13 72.2617 323.97C72.3217 323.803 72.405 323.64 72.5117 323.48C72.625 323.32 72.765 323.17 72.9317 323.03C73.0983 322.883 73.295 322.753 73.5217 322.64C73.0017 322.36 72.5917 321.987 72.2917 321.52C71.9983 321.053 71.8517 320.507 71.8517 319.88C71.8517 319.373 71.9517 318.917 72.1517 318.51C72.3583 318.097 72.6417 317.747 73.0017 317.46C73.3683 317.167 73.7983 316.943 74.2917 316.79C74.7917 316.637 75.335 316.56 75.9217 316.56C76.3617 316.56 76.775 316.607 77.1617 316.7C77.5483 316.787 77.9017 316.917 78.2217 317.09H81.1717ZM88.1581 322.62C87.4447 322.653 86.8447 322.717 86.3581 322.81C85.8714 322.897 85.4814 323.01 85.1881 323.15C84.8947 323.29 84.6847 323.453 84.5581 323.64C84.4314 323.827 84.3681 324.03 84.3681 324.25C84.3681 324.683 84.4947 324.993 84.7481 325.18C85.0081 325.367 85.3447 325.46 85.7581 325.46C86.2647 325.46 86.7014 325.37 87.0681 325.19C87.4414 325.003 87.8047 324.723 88.1581 324.35V322.62ZM82.4981 318.17C83.6781 317.09 85.0981 316.55 86.7581 316.55C87.3581 316.55 87.8947 316.65 88.3681 316.85C88.8414 317.043 89.2414 317.317 89.5681 317.67C89.8947 318.017 90.1414 318.433 90.3081 318.92C90.4814 319.407 90.5681 319.94 90.5681 320.52V327H89.4481C89.2147 327 89.0347 326.967 88.9081 326.9C88.7814 326.827 88.6814 326.683 88.6081 326.47L88.3881 325.73C88.1281 325.963 87.8747 326.17 87.6281 326.35C87.3814 326.523 87.1247 326.67 86.8581 326.79C86.5914 326.91 86.3047 327 85.9981 327.06C85.6981 327.127 85.3647 327.16 84.9981 327.16C84.5647 327.16 84.1647 327.103 83.7981 326.99C83.4314 326.87 83.1147 326.693 82.8481 326.46C82.5814 326.227 82.3747 325.937 82.2281 325.59C82.0814 325.243 82.0081 324.84 82.0081 324.38C82.0081 324.12 82.0514 323.863 82.1381 323.61C82.2247 323.35 82.3647 323.103 82.5581 322.87C82.7581 322.637 83.0147 322.417 83.3281 322.21C83.6414 322.003 84.0247 321.823 84.4781 321.67C84.9381 321.517 85.4714 321.393 86.0781 321.3C86.6847 321.2 87.3781 321.14 88.1581 321.12V320.52C88.1581 319.833 88.0114 319.327 87.7181 319C87.4247 318.667 87.0014 318.5 86.4481 318.5C86.0481 318.5 85.7147 318.547 85.4481 318.64C85.1881 318.733 84.9581 318.84 84.7581 318.96C84.5581 319.073 84.3747 319.177 84.2081 319.27C84.0481 319.363 83.8681 319.41 83.6681 319.41C83.4947 319.41 83.3481 319.367 83.2281 319.28C83.1081 319.187 83.0114 319.08 82.9381 318.96L82.4981 318.17ZM103.108 327H100.638V318.59H95.8776V324.15C95.8776 324.47 95.9543 324.72 96.1076 324.9C96.2676 325.08 96.4843 325.17 96.7576 325.17C96.9109 325.17 97.0376 325.153 97.1376 325.12C97.2443 325.08 97.3343 325.04 97.4076 325C97.4876 324.96 97.5576 324.923 97.6176 324.89C97.6776 324.85 97.7376 324.83 97.7976 324.83C97.8709 324.83 97.9309 324.85 97.9776 324.89C98.0243 324.923 98.0743 324.977 98.1276 325.05L98.8676 326.25C98.5076 326.55 98.0943 326.777 97.6276 326.93C97.1609 327.083 96.6776 327.16 96.1776 327.16C95.2843 327.16 94.5976 326.91 94.1176 326.41C93.6443 325.903 93.4076 325.207 93.4076 324.32V318.59H92.3576C92.2243 318.59 92.1109 318.547 92.0176 318.46C91.9243 318.373 91.8776 318.243 91.8776 318.07V317.09L93.5276 316.81L94.0476 314.02C94.0809 313.887 94.1443 313.783 94.2376 313.71C94.3309 313.637 94.4509 313.6 94.5976 313.6H95.8776V316.83H103.108V327ZM103.538 313.71C103.538 313.923 103.494 314.127 103.408 314.32C103.321 314.507 103.204 314.67 103.058 314.81C102.918 314.95 102.748 315.063 102.548 315.15C102.354 315.23 102.148 315.27 101.928 315.27C101.714 315.27 101.514 315.23 101.328 315.15C101.141 315.063 100.978 314.95 100.838 314.81C100.698 314.67 100.584 314.507 100.498 314.32C100.418 314.127 100.378 313.923 100.378 313.71C100.378 313.49 100.418 313.287 100.498 313.1C100.584 312.907 100.698 312.74 100.838 312.6C100.978 312.453 101.141 312.34 101.328 312.26C101.514 312.173 101.714 312.13 101.928 312.13C102.148 312.13 102.354 312.173 102.548 312.26C102.748 312.34 102.918 312.453 103.058 312.6C103.204 312.74 103.321 312.907 103.408 313.1C103.494 313.287 103.538 313.49 103.538 313.71ZM123.072 312.54V327H120.372V320.68H113.582V327H110.882V312.54H113.582V318.76H120.372V312.54H123.072ZM131.068 322.62C130.355 322.653 129.755 322.717 129.268 322.81C128.782 322.897 128.392 323.01 128.098 323.15C127.805 323.29 127.595 323.453 127.468 323.64C127.342 323.827 127.278 324.03 127.278 324.25C127.278 324.683 127.405 324.993 127.658 325.18C127.918 325.367 128.255 325.46 128.668 325.46C129.175 325.46 129.612 325.37 129.978 325.19C130.352 325.003 130.715 324.723 131.068 324.35V322.62ZM125.408 318.17C126.588 317.09 128.008 316.55 129.668 316.55C130.268 316.55 130.805 316.65 131.278 316.85C131.752 317.043 132.152 317.317 132.478 317.67C132.805 318.017 133.052 318.433 133.218 318.92C133.392 319.407 133.478 319.94 133.478 320.52V327H132.358C132.125 327 131.945 326.967 131.818 326.9C131.692 326.827 131.592 326.683 131.518 326.47L131.298 325.73C131.038 325.963 130.785 326.17 130.538 326.35C130.292 326.523 130.035 326.67 129.768 326.79C129.502 326.91 129.215 327 128.908 327.06C128.608 327.127 128.275 327.16 127.908 327.16C127.475 327.16 127.075 327.103 126.708 326.99C126.342 326.87 126.025 326.693 125.758 326.46C125.492 326.227 125.285 325.937 125.138 325.59C124.992 325.243 124.918 324.84 124.918 324.38C124.918 324.12 124.962 323.863 125.048 323.61C125.135 323.35 125.275 323.103 125.468 322.87C125.668 322.637 125.925 322.417 126.238 322.21C126.552 322.003 126.935 321.823 127.388 321.67C127.848 321.517 128.382 321.393 128.988 321.3C129.595 321.2 130.288 321.14 131.068 321.12V320.52C131.068 319.833 130.922 319.327 130.628 319C130.335 318.667 129.912 318.5 129.358 318.5C128.958 318.5 128.625 318.547 128.358 318.64C128.098 318.733 127.868 318.84 127.668 318.96C127.468 319.073 127.285 319.177 127.118 319.27C126.958 319.363 126.778 319.41 126.578 319.41C126.405 319.41 126.258 319.367 126.138 319.28C126.018 319.187 125.922 319.08 125.848 318.96L125.408 318.17ZM138.134 318.52C138.454 317.907 138.834 317.427 139.274 317.08C139.714 316.727 140.234 316.55 140.834 316.55C141.308 316.55 141.688 316.653 141.974 316.86L141.814 318.71C141.781 318.83 141.731 318.917 141.664 318.97C141.604 319.017 141.521 319.04 141.414 319.04C141.314 319.04 141.164 319.023 140.964 318.99C140.771 318.957 140.581 318.94 140.394 318.94C140.121 318.94 139.878 318.98 139.664 319.06C139.451 319.14 139.258 319.257 139.084 319.41C138.918 319.557 138.768 319.737 138.634 319.95C138.508 320.163 138.388 320.407 138.274 320.68V327H135.804V316.74H137.254C137.508 316.74 137.684 316.787 137.784 316.88C137.884 316.967 137.951 317.127 137.984 317.36L138.134 318.52ZM145.825 316.74V327H143.345V316.74H145.825ZM146.165 313.75C146.165 313.963 146.122 314.163 146.035 314.35C145.949 314.537 145.832 314.7 145.685 314.84C145.545 314.98 145.379 315.093 145.185 315.18C144.992 315.26 144.785 315.3 144.565 315.3C144.352 315.3 144.149 315.26 143.955 315.18C143.769 315.093 143.605 314.98 143.465 314.84C143.325 314.7 143.212 314.537 143.125 314.35C143.045 314.163 143.005 313.963 143.005 313.75C143.005 313.53 143.045 313.323 143.125 313.13C143.212 312.937 143.325 312.77 143.465 312.63C143.605 312.49 143.769 312.38 143.955 312.3C144.149 312.213 144.352 312.17 144.565 312.17C144.785 312.17 144.992 312.213 145.185 312.3C145.379 312.38 145.545 312.49 145.685 312.63C145.832 312.77 145.949 312.937 146.035 313.13C146.122 313.323 146.165 313.53 146.165 313.75ZM160.573 321.54L158.813 316.73C158.726 316.517 158.636 316.263 158.543 315.97C158.449 315.677 158.356 315.36 158.263 315.02C158.176 315.36 158.086 315.68 157.993 315.98C157.899 316.273 157.809 316.53 157.723 316.75L155.973 321.54H160.573ZM165.323 327H163.243C163.009 327 162.819 326.943 162.673 326.83C162.526 326.71 162.416 326.563 162.343 326.39L161.263 323.44H155.273L154.193 326.39C154.139 326.543 154.036 326.683 153.883 326.81C153.729 326.937 153.539 327 153.313 327H151.213L156.903 312.54H159.643L165.323 327ZM174.851 316.74L169.261 329.82C169.188 329.993 169.091 330.123 168.971 330.21C168.858 330.303 168.681 330.35 168.441 330.35H166.601L168.521 326.23L164.371 316.74H166.541C166.734 316.74 166.884 316.787 166.991 316.88C167.104 316.973 167.188 317.08 167.241 317.2L169.421 322.52C169.494 322.7 169.554 322.88 169.601 323.06C169.654 323.24 169.704 323.423 169.751 323.61C169.811 323.423 169.871 323.24 169.931 323.06C169.991 322.873 170.058 322.69 170.131 322.51L172.191 317.2C172.244 317.067 172.331 316.957 172.451 316.87C172.578 316.783 172.718 316.74 172.871 316.74H174.851ZM181.264 322.62C180.55 322.653 179.95 322.717 179.464 322.81C178.977 322.897 178.587 323.01 178.294 323.15C178 323.29 177.79 323.453 177.664 323.64C177.537 323.827 177.474 324.03 177.474 324.25C177.474 324.683 177.6 324.993 177.854 325.18C178.114 325.367 178.45 325.46 178.864 325.46C179.37 325.46 179.807 325.37 180.174 325.19C180.547 325.003 180.91 324.723 181.264 324.35V322.62ZM175.604 318.17C176.784 317.09 178.204 316.55 179.864 316.55C180.464 316.55 181 316.65 181.474 316.85C181.947 317.043 182.347 317.317 182.674 317.67C183 318.017 183.247 318.433 183.414 318.92C183.587 319.407 183.674 319.94 183.674 320.52V327H182.554C182.32 327 182.14 326.967 182.014 326.9C181.887 326.827 181.787 326.683 181.714 326.47L181.494 325.73C181.234 325.963 180.98 326.17 180.734 326.35C180.487 326.523 180.23 326.67 179.964 326.79C179.697 326.91 179.41 327 179.104 327.06C178.804 327.127 178.47 327.16 178.104 327.16C177.67 327.16 177.27 327.103 176.904 326.99C176.537 326.87 176.22 326.693 175.954 326.46C175.687 326.227 175.48 325.937 175.334 325.59C175.187 325.243 175.114 324.84 175.114 324.38C175.114 324.12 175.157 323.863 175.244 323.61C175.33 323.35 175.47 323.103 175.664 322.87C175.864 322.637 176.12 322.417 176.434 322.21C176.747 322.003 177.13 321.823 177.584 321.67C178.044 321.517 178.577 321.393 179.184 321.3C179.79 321.2 180.484 321.14 181.264 321.12V320.52C181.264 319.833 181.117 319.327 180.824 319C180.53 318.667 180.107 318.5 179.554 318.5C179.154 318.5 178.82 318.547 178.554 318.64C178.294 318.733 178.064 318.84 177.864 318.96C177.664 319.073 177.48 319.177 177.314 319.27C177.154 319.363 176.974 319.41 176.774 319.41C176.6 319.41 176.454 319.367 176.334 319.28C176.214 319.187 176.117 319.08 176.044 318.96L175.604 318.17ZM188.47 317.84C188.87 317.467 189.31 317.163 189.79 316.93C190.27 316.697 190.833 316.58 191.48 316.58C192.04 316.58 192.536 316.677 192.97 316.87C193.403 317.057 193.763 317.323 194.05 317.67C194.343 318.01 194.563 318.42 194.71 318.9C194.863 319.373 194.94 319.897 194.94 320.47V327H192.47V320.47C192.47 319.843 192.326 319.36 192.04 319.02C191.753 318.673 191.316 318.5 190.73 318.5C190.303 318.5 189.903 318.597 189.53 318.79C189.156 318.983 188.803 319.247 188.47 319.58V327H186V312.14H188.47V317.84ZM197.249 329.45C197.129 329.35 197.069 329.227 197.069 329.08C197.069 329.027 197.086 328.967 197.119 328.9C197.159 328.833 197.206 328.773 197.259 328.72C197.332 328.64 197.422 328.54 197.529 328.42C197.636 328.307 197.742 328.173 197.849 328.02C197.956 327.873 198.052 327.71 198.139 327.53C198.232 327.357 198.302 327.17 198.349 326.97C198.136 326.97 197.942 326.933 197.769 326.86C197.596 326.78 197.446 326.673 197.319 326.54C197.199 326.407 197.102 326.25 197.029 326.07C196.962 325.89 196.929 325.693 196.929 325.48C196.929 325.293 196.962 325.12 197.029 324.96C197.102 324.793 197.202 324.65 197.329 324.53C197.456 324.403 197.609 324.307 197.789 324.24C197.969 324.167 198.166 324.13 198.379 324.13C198.632 324.13 198.852 324.177 199.039 324.27C199.232 324.357 199.389 324.48 199.509 324.64C199.636 324.793 199.729 324.973 199.789 325.18C199.856 325.38 199.889 325.593 199.889 325.82C199.889 326.14 199.839 326.477 199.739 326.83C199.646 327.183 199.506 327.537 199.319 327.89C199.132 328.243 198.899 328.587 198.619 328.92C198.346 329.253 198.032 329.56 197.679 329.84L197.249 329.45ZM216.724 314.75H212.364V327H209.674V314.75H205.314V312.54H216.724V314.75ZM222.434 320.69C222.434 320.37 222.387 320.07 222.294 319.79C222.207 319.503 222.074 319.253 221.894 319.04C221.714 318.827 221.484 318.66 221.204 318.54C220.931 318.413 220.611 318.35 220.244 318.35C219.531 318.35 218.967 318.553 218.554 318.96C218.147 319.367 217.887 319.943 217.774 320.69H222.434ZM217.724 322.18C217.764 322.707 217.857 323.163 218.004 323.55C218.151 323.93 218.344 324.247 218.584 324.5C218.824 324.747 219.107 324.933 219.434 325.06C219.767 325.18 220.134 325.24 220.534 325.24C220.934 325.24 221.277 325.193 221.564 325.1C221.857 325.007 222.111 324.903 222.324 324.79C222.544 324.677 222.734 324.573 222.894 324.48C223.061 324.387 223.221 324.34 223.374 324.34C223.581 324.34 223.734 324.417 223.834 324.57L224.544 325.47C224.271 325.79 223.964 326.06 223.624 326.28C223.284 326.493 222.927 326.667 222.554 326.8C222.187 326.927 221.811 327.017 221.424 327.07C221.044 327.123 220.674 327.15 220.314 327.15C219.601 327.15 218.937 327.033 218.324 326.8C217.711 326.56 217.177 326.21 216.724 325.75C216.271 325.283 215.914 324.71 215.654 324.03C215.394 323.343 215.264 322.55 215.264 321.65C215.264 320.95 215.377 320.293 215.604 319.68C215.831 319.06 216.154 318.523 216.574 318.07C217.001 317.61 217.517 317.247 218.124 316.98C218.737 316.713 219.427 316.58 220.194 316.58C220.841 316.58 221.437 316.683 221.984 316.89C222.531 317.097 223.001 317.4 223.394 317.8C223.787 318.193 224.094 318.68 224.314 319.26C224.541 319.833 224.654 320.49 224.654 321.23C224.654 321.603 224.614 321.857 224.534 321.99C224.454 322.117 224.301 322.18 224.074 322.18H217.724ZM232.948 319.36C232.668 319.02 232.361 318.78 232.028 318.64C231.701 318.5 231.348 318.43 230.968 318.43C230.594 318.43 230.258 318.5 229.958 318.64C229.658 318.78 229.401 318.993 229.188 319.28C228.974 319.56 228.811 319.92 228.698 320.36C228.584 320.793 228.528 321.307 228.528 321.9C228.528 322.5 228.574 323.01 228.668 323.43C228.768 323.843 228.908 324.183 229.088 324.45C229.268 324.71 229.488 324.9 229.748 325.02C230.008 325.133 230.298 325.19 230.618 325.19C231.131 325.19 231.568 325.083 231.928 324.87C232.288 324.657 232.628 324.353 232.948 323.96V319.36ZM235.418 312.14V327H233.908C233.581 327 233.374 326.85 233.288 326.55L233.078 325.56C232.664 326.033 232.188 326.417 231.648 326.71C231.114 327.003 230.491 327.15 229.778 327.15C229.218 327.15 228.704 327.033 228.238 326.8C227.771 326.567 227.368 326.23 227.028 325.79C226.694 325.343 226.434 324.793 226.248 324.14C226.068 323.487 225.978 322.74 225.978 321.9C225.978 321.14 226.081 320.433 226.288 319.78C226.494 319.127 226.791 318.56 227.178 318.08C227.564 317.6 228.028 317.227 228.568 316.96C229.108 316.687 229.714 316.55 230.388 316.55C230.961 316.55 231.451 316.64 231.858 316.82C232.264 317 232.628 317.243 232.948 317.55V312.14H235.418ZM247.175 316.74L241.585 329.82C241.512 329.993 241.415 330.123 241.295 330.21C241.182 330.303 241.005 330.35 240.765 330.35H238.925L240.845 326.23L236.695 316.74H238.865C239.059 316.74 239.209 316.787 239.315 316.88C239.429 316.973 239.512 317.08 239.565 317.2L241.745 322.52C241.819 322.7 241.879 322.88 241.925 323.06C241.979 323.24 242.029 323.423 242.075 323.61C242.135 323.423 242.195 323.24 242.255 323.06C242.315 322.873 242.382 322.69 242.455 322.51L244.515 317.2C244.569 317.067 244.655 316.957 244.775 316.87C244.902 316.783 245.042 316.74 245.195 316.74H247.175ZM257.518 319.42C258.024 319.42 258.464 319.357 258.838 319.23C259.218 319.103 259.528 318.93 259.768 318.71C260.014 318.483 260.198 318.217 260.318 317.91C260.438 317.603 260.498 317.267 260.498 316.9C260.498 316.167 260.254 315.603 259.768 315.21C259.288 314.817 258.551 314.62 257.558 314.62H255.838V319.42H257.518ZM264.438 327H262.008C261.548 327 261.214 326.82 261.008 326.46L257.968 321.83C257.854 321.657 257.728 321.533 257.588 321.46C257.454 321.387 257.254 321.35 256.988 321.35H255.838V327H253.148V312.54H257.558C258.538 312.54 259.378 312.643 260.078 312.85C260.784 313.05 261.361 313.333 261.808 313.7C262.261 314.067 262.594 314.507 262.808 315.02C263.021 315.527 263.128 316.087 263.128 316.7C263.128 317.187 263.054 317.647 262.908 318.08C262.768 318.513 262.561 318.907 262.288 319.26C262.021 319.613 261.688 319.923 261.288 320.19C260.894 320.457 260.444 320.667 259.938 320.82C260.111 320.92 260.271 321.04 260.418 321.18C260.564 321.313 260.698 321.473 260.818 321.66L264.438 327ZM274.059 316.74V327H272.549C272.222 327 272.015 326.85 271.929 326.55L271.759 325.73C271.339 326.157 270.875 326.503 270.369 326.77C269.862 327.03 269.265 327.16 268.579 327.16C268.019 327.16 267.522 327.067 267.089 326.88C266.662 326.687 266.302 326.417 266.009 326.07C265.715 325.723 265.492 325.313 265.339 324.84C265.192 324.36 265.119 323.833 265.119 323.26V316.74H267.589V323.26C267.589 323.887 267.732 324.373 268.019 324.72C268.312 325.06 268.749 325.23 269.329 325.23C269.755 325.23 270.155 325.137 270.529 324.95C270.902 324.757 271.255 324.493 271.589 324.16V316.74H274.059ZM282.768 318.74C282.701 318.847 282.631 318.923 282.558 318.97C282.484 319.01 282.391 319.03 282.278 319.03C282.158 319.03 282.028 318.997 281.888 318.93C281.754 318.863 281.598 318.79 281.418 318.71C281.238 318.623 281.031 318.547 280.798 318.48C280.571 318.413 280.301 318.38 279.988 318.38C279.501 318.38 279.118 318.483 278.838 318.69C278.564 318.897 278.428 319.167 278.428 319.5C278.428 319.72 278.498 319.907 278.638 320.06C278.784 320.207 278.974 320.337 279.208 320.45C279.448 320.563 279.718 320.667 280.018 320.76C280.318 320.847 280.621 320.943 280.928 321.05C281.241 321.157 281.548 321.28 281.848 321.42C282.148 321.553 282.414 321.727 282.648 321.94C282.888 322.147 283.078 322.397 283.218 322.69C283.364 322.983 283.438 323.337 283.438 323.75C283.438 324.243 283.348 324.7 283.168 325.12C282.994 325.533 282.734 325.893 282.388 326.2C282.041 326.5 281.611 326.737 281.098 326.91C280.591 327.077 280.004 327.16 279.338 327.16C278.984 327.16 278.638 327.127 278.298 327.06C277.964 327 277.641 326.913 277.328 326.8C277.021 326.687 276.734 326.553 276.468 326.4C276.208 326.247 275.978 326.08 275.778 325.9L276.348 324.96C276.421 324.847 276.508 324.76 276.608 324.7C276.708 324.64 276.834 324.61 276.988 324.61C277.141 324.61 277.284 324.653 277.418 324.74C277.558 324.827 277.718 324.92 277.898 325.02C278.078 325.12 278.288 325.213 278.528 325.3C278.774 325.387 279.084 325.43 279.458 325.43C279.751 325.43 280.001 325.397 280.208 325.33C280.421 325.257 280.594 325.163 280.728 325.05C280.868 324.937 280.968 324.807 281.028 324.66C281.094 324.507 281.128 324.35 281.128 324.19C281.128 323.95 281.054 323.753 280.908 323.6C280.768 323.447 280.578 323.313 280.338 323.2C280.104 323.087 279.834 322.987 279.528 322.9C279.228 322.807 278.918 322.707 278.598 322.6C278.284 322.493 277.974 322.37 277.668 322.23C277.368 322.083 277.098 321.9 276.858 321.68C276.624 321.46 276.434 321.19 276.288 320.87C276.148 320.55 276.078 320.163 276.078 319.71C276.078 319.29 276.161 318.89 276.328 318.51C276.494 318.13 276.738 317.8 277.058 317.52C277.384 317.233 277.788 317.007 278.268 316.84C278.754 316.667 279.314 316.58 279.948 316.58C280.654 316.58 281.298 316.697 281.878 316.93C282.458 317.163 282.941 317.47 283.328 317.85L282.768 318.74ZM285.297 327V316.74H286.807C287.127 316.74 287.337 316.89 287.437 317.19L287.597 317.95C287.777 317.75 287.963 317.567 288.157 317.4C288.357 317.233 288.567 317.09 288.787 316.97C289.013 316.85 289.253 316.757 289.507 316.69C289.767 316.617 290.05 316.58 290.357 316.58C291.003 316.58 291.533 316.757 291.947 317.11C292.367 317.457 292.68 317.92 292.887 318.5C293.047 318.16 293.247 317.87 293.487 317.63C293.727 317.383 293.99 317.183 294.277 317.03C294.563 316.877 294.867 316.763 295.187 316.69C295.513 316.617 295.84 316.58 296.167 316.58C296.733 316.58 297.237 316.667 297.677 316.84C298.117 317.013 298.487 317.267 298.787 317.6C299.087 317.933 299.313 318.34 299.467 318.82C299.627 319.3 299.707 319.85 299.707 320.47V327H297.237V320.47C297.237 319.817 297.093 319.327 296.807 319C296.52 318.667 296.1 318.5 295.547 318.5C295.293 318.5 295.057 318.543 294.837 318.63C294.623 318.717 294.433 318.843 294.267 319.01C294.107 319.17 293.98 319.373 293.887 319.62C293.793 319.867 293.747 320.15 293.747 320.47V327H291.267V320.47C291.267 319.783 291.127 319.283 290.847 318.97C290.573 318.657 290.17 318.5 289.637 318.5C289.277 318.5 288.94 318.59 288.627 318.77C288.32 318.943 288.033 319.183 287.767 319.49V327H285.297ZM307.474 322.62C306.761 322.653 306.161 322.717 305.674 322.81C305.188 322.897 304.798 323.01 304.504 323.15C304.211 323.29 304.001 323.453 303.874 323.64C303.748 323.827 303.684 324.03 303.684 324.25C303.684 324.683 303.811 324.993 304.064 325.18C304.324 325.367 304.661 325.46 305.074 325.46C305.581 325.46 306.018 325.37 306.384 325.19C306.758 325.003 307.121 324.723 307.474 324.35V322.62ZM301.814 318.17C302.994 317.09 304.414 316.55 306.074 316.55C306.674 316.55 307.211 316.65 307.684 316.85C308.158 317.043 308.558 317.317 308.884 317.67C309.211 318.017 309.458 318.433 309.624 318.92C309.798 319.407 309.884 319.94 309.884 320.52V327H308.764C308.531 327 308.351 326.967 308.224 326.9C308.098 326.827 307.998 326.683 307.924 326.47L307.704 325.73C307.444 325.963 307.191 326.17 306.944 326.35C306.698 326.523 306.441 326.67 306.174 326.79C305.908 326.91 305.621 327 305.314 327.06C305.014 327.127 304.681 327.16 304.314 327.16C303.881 327.16 303.481 327.103 303.114 326.99C302.748 326.87 302.431 326.693 302.164 326.46C301.898 326.227 301.691 325.937 301.544 325.59C301.398 325.243 301.324 324.84 301.324 324.38C301.324 324.12 301.368 323.863 301.454 323.61C301.541 323.35 301.681 323.103 301.874 322.87C302.074 322.637 302.331 322.417 302.644 322.21C302.958 322.003 303.341 321.823 303.794 321.67C304.254 321.517 304.788 321.393 305.394 321.3C306.001 321.2 306.694 321.14 307.474 321.12V320.52C307.474 319.833 307.328 319.327 307.034 319C306.741 318.667 306.318 318.5 305.764 318.5C305.364 318.5 305.031 318.547 304.764 318.64C304.504 318.733 304.274 318.84 304.074 318.96C303.874 319.073 303.691 319.177 303.524 319.27C303.364 319.363 303.184 319.41 302.984 319.41C302.811 319.41 302.664 319.367 302.544 319.28C302.424 319.187 302.328 319.08 302.254 318.96L301.814 318.17ZM326.763 316.74L323.503 327H321.523C321.296 327 321.14 326.853 321.053 326.56L319.213 320.63C319.153 320.43 319.096 320.233 319.043 320.04C318.996 319.84 318.956 319.64 318.923 319.44C318.883 319.64 318.836 319.843 318.783 320.05C318.736 320.25 318.683 320.45 318.623 320.65L316.753 326.56C316.673 326.853 316.496 327 316.223 327H314.323L311.073 316.74H313.043C313.223 316.74 313.376 316.783 313.503 316.87C313.63 316.957 313.713 317.067 313.753 317.2L315.223 322.68C315.296 322.98 315.36 323.273 315.413 323.56C315.473 323.847 315.523 324.133 315.563 324.42C315.636 324.133 315.713 323.847 315.793 323.56C315.88 323.273 315.97 322.98 316.063 322.68L317.763 317.18C317.803 317.047 317.88 316.937 317.993 316.85C318.113 316.763 318.256 316.72 318.423 316.72H319.513C319.686 316.72 319.833 316.763 319.953 316.85C320.08 316.937 320.163 317.047 320.203 317.18L321.853 322.68C321.94 322.98 322.02 323.277 322.093 323.57C322.173 323.857 322.25 324.143 322.323 324.43C322.41 323.863 322.533 323.28 322.693 322.68L324.203 317.2C324.25 317.067 324.333 316.957 324.453 316.87C324.573 316.783 324.716 316.74 324.883 316.74H326.763ZM333.451 322.62C332.738 322.653 332.138 322.717 331.651 322.81C331.164 322.897 330.774 323.01 330.481 323.15C330.188 323.29 329.978 323.453 329.851 323.64C329.724 323.827 329.661 324.03 329.661 324.25C329.661 324.683 329.788 324.993 330.041 325.18C330.301 325.367 330.638 325.46 331.051 325.46C331.558 325.46 331.994 325.37 332.361 325.19C332.734 325.003 333.098 324.723 333.451 324.35V322.62ZM327.791 318.17C328.971 317.09 330.391 316.55 332.051 316.55C332.651 316.55 333.188 316.65 333.661 316.85C334.134 317.043 334.534 317.317 334.861 317.67C335.188 318.017 335.434 318.433 335.601 318.92C335.774 319.407 335.861 319.94 335.861 320.52V327H334.741C334.508 327 334.328 326.967 334.201 326.9C334.074 326.827 333.974 326.683 333.901 326.47L333.681 325.73C333.421 325.963 333.168 326.17 332.921 326.35C332.674 326.523 332.418 326.67 332.151 326.79C331.884 326.91 331.598 327 331.291 327.06C330.991 327.127 330.658 327.16 330.291 327.16C329.858 327.16 329.458 327.103 329.091 326.99C328.724 326.87 328.408 326.693 328.141 326.46C327.874 326.227 327.668 325.937 327.521 325.59C327.374 325.243 327.301 324.84 327.301 324.38C327.301 324.12 327.344 323.863 327.431 323.61C327.518 323.35 327.658 323.103 327.851 322.87C328.051 322.637 328.308 322.417 328.621 322.21C328.934 322.003 329.318 321.823 329.771 321.67C330.231 321.517 330.764 321.393 331.371 321.3C331.978 321.2 332.671 321.14 333.451 321.12V320.52C333.451 319.833 333.304 319.327 333.011 319C332.718 318.667 332.294 318.5 331.741 318.5C331.341 318.5 331.008 318.547 330.741 318.64C330.481 318.733 330.251 318.84 330.051 318.96C329.851 319.073 329.668 319.177 329.501 319.27C329.341 319.363 329.161 319.41 328.961 319.41C328.788 319.41 328.641 319.367 328.521 319.28C328.401 319.187 328.304 319.08 328.231 318.96L327.791 318.17ZM340.497 318C340.704 317.793 340.921 317.603 341.147 317.43C341.381 317.25 341.624 317.1 341.877 316.98C342.137 316.853 342.414 316.757 342.707 316.69C343.001 316.617 343.321 316.58 343.667 316.58C344.227 316.58 344.724 316.677 345.157 316.87C345.591 317.057 345.951 317.323 346.237 317.67C346.531 318.01 346.751 318.42 346.897 318.9C347.051 319.373 347.127 319.897 347.127 320.47V327H344.657V320.47C344.657 319.843 344.514 319.36 344.227 319.02C343.941 318.673 343.504 318.5 342.917 318.5C342.491 318.5 342.091 318.597 341.717 318.79C341.344 318.983 340.991 319.247 340.657 319.58V327H338.187V316.74H339.697C340.017 316.74 340.227 316.89 340.327 317.19L340.497 318ZM360.14 324.9C360.64 324.9 361.06 324.84 361.4 324.72C361.74 324.6 362.01 324.44 362.21 324.24C362.416 324.04 362.563 323.807 362.65 323.54C362.743 323.273 362.79 322.99 362.79 322.69C362.79 322.377 362.74 322.097 362.64 321.85C362.54 321.597 362.383 321.383 362.17 321.21C361.956 321.03 361.68 320.893 361.34 320.8C361.006 320.707 360.603 320.66 360.13 320.66H357.42V324.9H360.14ZM357.42 314.62V318.8H359.56C360.48 318.8 361.173 318.633 361.64 318.3C362.113 317.967 362.35 317.437 362.35 316.71C362.35 315.957 362.136 315.42 361.71 315.1C361.283 314.78 360.616 314.62 359.71 314.62H357.42ZM359.71 312.54C360.656 312.54 361.466 312.63 362.14 312.81C362.813 312.99 363.363 313.247 363.79 313.58C364.223 313.913 364.54 314.317 364.74 314.79C364.94 315.263 365.04 315.797 365.04 316.39C365.04 316.73 364.99 317.057 364.89 317.37C364.79 317.677 364.633 317.967 364.42 318.24C364.213 318.507 363.946 318.75 363.62 318.97C363.3 319.19 362.916 319.377 362.47 319.53C364.456 319.977 365.45 321.05 365.45 322.75C365.45 323.363 365.333 323.93 365.1 324.45C364.866 324.97 364.526 325.42 364.08 325.8C363.633 326.173 363.083 326.467 362.43 326.68C361.776 326.893 361.03 327 360.19 327H354.73V312.54H359.71ZM372.767 322.62C372.054 322.653 371.454 322.717 370.967 322.81C370.481 322.897 370.091 323.01 369.797 323.15C369.504 323.29 369.294 323.453 369.167 323.64C369.041 323.827 368.977 324.03 368.977 324.25C368.977 324.683 369.104 324.993 369.357 325.18C369.617 325.367 369.954 325.46 370.367 325.46C370.874 325.46 371.311 325.37 371.677 325.19C372.051 325.003 372.414 324.723 372.767 324.35V322.62ZM367.107 318.17C368.287 317.09 369.707 316.55 371.367 316.55C371.967 316.55 372.504 316.65 372.977 316.85C373.451 317.043 373.851 317.317 374.177 317.67C374.504 318.017 374.751 318.433 374.917 318.92C375.091 319.407 375.177 319.94 375.177 320.52V327H374.057C373.824 327 373.644 326.967 373.517 326.9C373.391 326.827 373.291 326.683 373.217 326.47L372.997 325.73C372.737 325.963 372.484 326.17 372.237 326.35C371.991 326.523 371.734 326.67 371.467 326.79C371.201 326.91 370.914 327 370.607 327.06C370.307 327.127 369.974 327.16 369.607 327.16C369.174 327.16 368.774 327.103 368.407 326.99C368.041 326.87 367.724 326.693 367.457 326.46C367.191 326.227 366.984 325.937 366.837 325.59C366.691 325.243 366.617 324.84 366.617 324.38C366.617 324.12 366.661 323.863 366.747 323.61C366.834 323.35 366.974 323.103 367.167 322.87C367.367 322.637 367.624 322.417 367.937 322.21C368.251 322.003 368.634 321.823 369.087 321.67C369.547 321.517 370.081 321.393 370.687 321.3C371.294 321.2 371.987 321.14 372.767 321.12V320.52C372.767 319.833 372.621 319.327 372.327 319C372.034 318.667 371.611 318.5 371.057 318.5C370.657 318.5 370.324 318.547 370.057 318.64C369.797 318.733 369.567 318.84 369.367 318.96C369.167 319.073 368.984 319.177 368.817 319.27C368.657 319.363 368.477 319.41 368.277 319.41C368.104 319.41 367.957 319.367 367.837 319.28C367.717 319.187 367.621 319.08 367.547 318.96L367.107 318.17ZM381.254 321.62C381.56 321.62 381.827 321.58 382.054 321.5C382.28 321.413 382.467 321.297 382.614 321.15C382.767 321.003 382.88 320.827 382.954 320.62C383.034 320.413 383.074 320.187 383.074 319.94C383.074 319.433 382.92 319.033 382.614 318.74C382.314 318.44 381.86 318.29 381.254 318.29C380.647 318.29 380.19 318.44 379.884 318.74C379.584 319.033 379.434 319.433 379.434 319.94C379.434 320.18 379.47 320.403 379.544 320.61C379.624 320.817 379.737 320.997 379.884 321.15C380.037 321.297 380.227 321.413 380.454 321.5C380.687 321.58 380.954 321.62 381.254 321.62ZM384.044 327.46C384.044 327.26 383.984 327.097 383.864 326.97C383.744 326.843 383.58 326.747 383.374 326.68C383.167 326.607 382.924 326.553 382.644 326.52C382.37 326.487 382.077 326.463 381.764 326.45C381.457 326.43 381.137 326.413 380.804 326.4C380.477 326.387 380.157 326.36 379.844 326.32C379.57 326.473 379.347 326.653 379.174 326.86C379.007 327.067 378.924 327.307 378.924 327.58C378.924 327.76 378.967 327.927 379.054 328.08C379.147 328.24 379.29 328.377 379.484 328.49C379.684 328.603 379.94 328.69 380.254 328.75C380.567 328.817 380.95 328.85 381.404 328.85C381.864 328.85 382.26 328.813 382.594 328.74C382.927 328.673 383.2 328.577 383.414 328.45C383.634 328.33 383.794 328.183 383.894 328.01C383.994 327.843 384.044 327.66 384.044 327.46ZM386.504 317.09V318.01C386.504 318.303 386.327 318.483 385.974 318.55L385.054 318.72C385.194 319.073 385.264 319.46 385.264 319.88C385.264 320.387 385.16 320.847 384.954 321.26C384.754 321.667 384.474 322.013 384.114 322.3C383.754 322.587 383.327 322.81 382.834 322.97C382.347 323.123 381.82 323.2 381.254 323.2C381.054 323.2 380.86 323.19 380.674 323.17C380.487 323.15 380.304 323.123 380.124 323.09C379.804 323.283 379.644 323.5 379.644 323.74C379.644 323.947 379.737 324.1 379.924 324.2C380.117 324.293 380.37 324.36 380.684 324.4C380.997 324.44 381.354 324.467 381.754 324.48C382.154 324.487 382.564 324.507 382.984 324.54C383.404 324.573 383.814 324.633 384.214 324.72C384.614 324.8 384.97 324.93 385.284 325.11C385.597 325.29 385.847 325.537 386.034 325.85C386.227 326.157 386.324 326.553 386.324 327.04C386.324 327.493 386.21 327.933 385.984 328.36C385.764 328.787 385.44 329.167 385.014 329.5C384.594 329.833 384.074 330.1 383.454 330.3C382.84 330.507 382.14 330.61 381.354 330.61C380.58 330.61 379.907 330.533 379.334 330.38C378.76 330.233 378.284 330.033 377.904 329.78C377.524 329.533 377.24 329.247 377.054 328.92C376.867 328.593 376.774 328.253 376.774 327.9C376.774 327.42 376.917 327.02 377.204 326.7C377.497 326.373 377.897 326.113 378.404 325.92C378.13 325.78 377.914 325.593 377.754 325.36C377.594 325.127 377.514 324.82 377.514 324.44C377.514 324.287 377.54 324.13 377.594 323.97C377.654 323.803 377.737 323.64 377.844 323.48C377.957 323.32 378.097 323.17 378.264 323.03C378.43 322.883 378.627 322.753 378.854 322.64C378.334 322.36 377.924 321.987 377.624 321.52C377.33 321.053 377.184 320.507 377.184 319.88C377.184 319.373 377.284 318.917 377.484 318.51C377.69 318.097 377.974 317.747 378.334 317.46C378.7 317.167 379.13 316.943 379.624 316.79C380.124 316.637 380.667 316.56 381.254 316.56C381.694 316.56 382.107 316.607 382.494 316.7C382.88 316.787 383.234 316.917 383.554 317.09H386.504ZM390.63 316.74V327H388.15V316.74H390.63ZM390.97 313.75C390.97 313.963 390.927 314.163 390.84 314.35C390.753 314.537 390.637 314.7 390.49 314.84C390.35 314.98 390.183 315.093 389.99 315.18C389.797 315.26 389.59 315.3 389.37 315.3C389.157 315.3 388.953 315.26 388.76 315.18C388.573 315.093 388.41 314.98 388.27 314.84C388.13 314.7 388.017 314.537 387.93 314.35C387.85 314.163 387.81 313.963 387.81 313.75C387.81 313.53 387.85 313.323 387.93 313.13C388.017 312.937 388.13 312.77 388.27 312.63C388.41 312.49 388.573 312.38 388.76 312.3C388.953 312.213 389.157 312.17 389.37 312.17C389.59 312.17 389.797 312.213 389.99 312.3C390.183 312.38 390.35 312.49 390.49 312.63C390.637 312.77 390.753 312.937 390.84 313.13C390.927 313.323 390.97 313.53 390.97 313.75ZM407.896 314.75H403.536V327H400.846V314.75H396.486V312.54H407.896V314.75ZM411.861 316.74V327H409.381V316.74H411.861ZM412.201 313.75C412.201 313.963 412.157 314.163 412.071 314.35C411.984 314.537 411.867 314.7 411.721 314.84C411.581 314.98 411.414 315.093 411.221 315.18C411.027 315.26 410.821 315.3 410.601 315.3C410.387 315.3 410.184 315.26 409.991 315.18C409.804 315.093 409.641 314.98 409.501 314.84C409.361 314.7 409.247 314.537 409.161 314.35C409.081 314.163 409.041 313.963 409.041 313.75C409.041 313.53 409.081 313.323 409.161 313.13C409.247 312.937 409.361 312.77 409.501 312.63C409.641 312.49 409.804 312.38 409.991 312.3C410.184 312.213 410.387 312.17 410.601 312.17C410.821 312.17 411.027 312.213 411.221 312.3C411.414 312.38 411.581 312.49 411.721 312.63C411.867 312.77 411.984 312.937 412.071 313.13C412.157 313.323 412.201 313.53 412.201 313.75ZM416.849 324.34C417.129 324.68 417.432 324.92 417.759 325.06C418.092 325.2 418.452 325.27 418.839 325.27C419.212 325.27 419.549 325.2 419.849 325.06C420.149 324.92 420.402 324.707 420.609 324.42C420.822 324.133 420.985 323.773 421.099 323.34C421.212 322.9 421.269 322.383 421.269 321.79C421.269 321.19 421.219 320.683 421.119 320.27C421.025 319.85 420.889 319.51 420.709 319.25C420.529 318.99 420.309 318.8 420.049 318.68C419.795 318.56 419.505 318.5 419.179 318.5C418.665 318.5 418.229 318.61 417.869 318.83C417.509 319.043 417.169 319.347 416.849 319.74V324.34ZM416.719 318.14C417.139 317.667 417.615 317.283 418.149 316.99C418.682 316.697 419.309 316.55 420.029 316.55C420.589 316.55 421.099 316.667 421.559 316.9C422.025 317.133 422.425 317.473 422.759 317.92C423.099 318.36 423.359 318.907 423.539 319.56C423.725 320.207 423.819 320.95 423.819 321.79C423.819 322.557 423.715 323.267 423.509 323.92C423.302 324.573 423.005 325.14 422.619 325.62C422.239 326.1 421.775 326.477 421.229 326.75C420.689 327.017 420.082 327.15 419.409 327.15C418.835 327.15 418.345 327.063 417.939 326.89C417.532 326.71 417.169 326.463 416.849 326.15V330.35H414.379V316.74H415.889C416.209 316.74 416.419 316.89 416.519 317.19L416.719 318.14ZM432.006 318.74C431.939 318.847 431.869 318.923 431.796 318.97C431.723 319.01 431.629 319.03 431.516 319.03C431.396 319.03 431.266 318.997 431.126 318.93C430.993 318.863 430.836 318.79 430.656 318.71C430.476 318.623 430.269 318.547 430.036 318.48C429.809 318.413 429.539 318.38 429.226 318.38C428.739 318.38 428.356 318.483 428.076 318.69C427.803 318.897 427.666 319.167 427.666 319.5C427.666 319.72 427.736 319.907 427.876 320.06C428.023 320.207 428.213 320.337 428.446 320.45C428.686 320.563 428.956 320.667 429.256 320.76C429.556 320.847 429.859 320.943 430.166 321.05C430.479 321.157 430.786 321.28 431.086 321.42C431.386 321.553 431.653 321.727 431.886 321.94C432.126 322.147 432.316 322.397 432.456 322.69C432.603 322.983 432.676 323.337 432.676 323.75C432.676 324.243 432.586 324.7 432.406 325.12C432.233 325.533 431.973 325.893 431.626 326.2C431.279 326.5 430.849 326.737 430.336 326.91C429.829 327.077 429.243 327.16 428.576 327.16C428.223 327.16 427.876 327.127 427.536 327.06C427.203 327 426.879 326.913 426.566 326.8C426.259 326.687 425.973 326.553 425.706 326.4C425.446 326.247 425.216 326.08 425.016 325.9L425.586 324.96C425.659 324.847 425.746 324.76 425.846 324.7C425.946 324.64 426.073 324.61 426.226 324.61C426.379 324.61 426.523 324.653 426.656 324.74C426.796 324.827 426.956 324.92 427.136 325.02C427.316 325.12 427.526 325.213 427.766 325.3C428.013 325.387 428.323 325.43 428.696 325.43C428.989 325.43 429.239 325.397 429.446 325.33C429.659 325.257 429.833 325.163 429.966 325.05C430.106 324.937 430.206 324.807 430.266 324.66C430.333 324.507 430.366 324.35 430.366 324.19C430.366 323.95 430.293 323.753 430.146 323.6C430.006 323.447 429.816 323.313 429.576 323.2C429.343 323.087 429.073 322.987 428.766 322.9C428.466 322.807 428.156 322.707 427.836 322.6C427.523 322.493 427.213 322.37 426.906 322.23C426.606 322.083 426.336 321.9 426.096 321.68C425.863 321.46 425.673 321.19 425.526 320.87C425.386 320.55 425.316 320.163 425.316 319.71C425.316 319.29 425.399 318.89 425.566 318.51C425.733 318.13 425.976 317.8 426.296 317.52C426.623 317.233 427.026 317.007 427.506 316.84C427.993 316.667 428.553 316.58 429.186 316.58C429.893 316.58 430.536 316.697 431.116 316.93C431.696 317.163 432.179 317.47 432.566 317.85L432.006 318.74ZM447.488 315.17C447.408 315.31 447.322 315.413 447.228 315.48C447.142 315.54 447.032 315.57 446.898 315.57C446.758 315.57 446.605 315.52 446.438 315.42C446.278 315.313 446.085 315.197 445.858 315.07C445.632 314.943 445.365 314.83 445.058 314.73C444.758 314.623 444.402 314.57 443.988 314.57C443.615 314.57 443.288 314.617 443.008 314.71C442.728 314.797 442.492 314.92 442.298 315.08C442.112 315.24 441.972 315.433 441.878 315.66C441.785 315.88 441.738 316.123 441.738 316.39C441.738 316.73 441.832 317.013 442.018 317.24C442.212 317.467 442.465 317.66 442.778 317.82C443.092 317.98 443.448 318.123 443.848 318.25C444.248 318.377 444.658 318.513 445.078 318.66C445.498 318.8 445.908 318.967 446.308 319.16C446.708 319.347 447.065 319.587 447.378 319.88C447.692 320.167 447.942 320.52 448.128 320.94C448.322 321.36 448.418 321.87 448.418 322.47C448.418 323.123 448.305 323.737 448.078 324.31C447.858 324.877 447.532 325.373 447.098 325.8C446.672 326.22 446.148 326.553 445.528 326.8C444.908 327.04 444.198 327.16 443.398 327.16C442.938 327.16 442.485 327.113 442.038 327.02C441.592 326.933 441.162 326.807 440.748 326.64C440.342 326.473 439.958 326.273 439.598 326.04C439.238 325.807 438.918 325.547 438.638 325.26L439.428 323.97C439.495 323.877 439.582 323.8 439.688 323.74C439.795 323.673 439.908 323.64 440.028 323.64C440.195 323.64 440.375 323.71 440.568 323.85C440.762 323.983 440.992 324.133 441.258 324.3C441.525 324.467 441.835 324.62 442.188 324.76C442.548 324.893 442.978 324.96 443.478 324.96C444.245 324.96 444.838 324.78 445.258 324.42C445.678 324.053 445.888 323.53 445.888 322.85C445.888 322.47 445.792 322.16 445.598 321.92C445.412 321.68 445.162 321.48 444.848 321.32C444.535 321.153 444.178 321.013 443.778 320.9C443.378 320.787 442.972 320.663 442.558 320.53C442.145 320.397 441.738 320.237 441.338 320.05C440.938 319.863 440.582 319.62 440.268 319.32C439.955 319.02 439.702 318.647 439.508 318.2C439.322 317.747 439.228 317.19 439.228 316.53C439.228 316.003 439.332 315.49 439.538 314.99C439.752 314.49 440.058 314.047 440.458 313.66C440.858 313.273 441.352 312.963 441.938 312.73C442.525 312.497 443.198 312.38 443.958 312.38C444.812 312.38 445.598 312.513 446.318 312.78C447.038 313.047 447.652 313.42 448.158 313.9L447.488 315.17ZM454.876 316.58C455.636 316.58 456.326 316.703 456.946 316.95C457.572 317.197 458.106 317.547 458.546 318C458.992 318.453 459.336 319.007 459.576 319.66C459.816 320.313 459.936 321.043 459.936 321.85C459.936 322.663 459.816 323.397 459.576 324.05C459.336 324.703 458.992 325.26 458.546 325.72C458.106 326.18 457.572 326.533 456.946 326.78C456.326 327.027 455.636 327.15 454.876 327.15C454.109 327.15 453.412 327.027 452.786 326.78C452.159 326.533 451.622 326.18 451.176 325.72C450.736 325.26 450.392 324.703 450.146 324.05C449.906 323.397 449.786 322.663 449.786 321.85C449.786 321.043 449.906 320.313 450.146 319.66C450.392 319.007 450.736 318.453 451.176 318C451.622 317.547 452.159 317.197 452.786 316.95C453.412 316.703 454.109 316.58 454.876 316.58ZM454.876 325.25C455.729 325.25 456.359 324.963 456.766 324.39C457.179 323.817 457.386 322.977 457.386 321.87C457.386 320.763 457.179 319.92 456.766 319.34C456.359 318.76 455.729 318.47 454.876 318.47C454.009 318.47 453.366 318.763 452.946 319.35C452.532 319.93 452.326 320.77 452.326 321.87C452.326 322.97 452.532 323.81 452.946 324.39C453.366 324.963 454.009 325.25 454.876 325.25ZM467.24 322.62C466.527 322.653 465.927 322.717 465.44 322.81C464.953 322.897 464.563 323.01 464.27 323.15C463.977 323.29 463.767 323.453 463.64 323.64C463.513 323.827 463.45 324.03 463.45 324.25C463.45 324.683 463.577 324.993 463.83 325.18C464.09 325.367 464.427 325.46 464.84 325.46C465.347 325.46 465.783 325.37 466.15 325.19C466.523 325.003 466.887 324.723 467.24 324.35V322.62ZM461.58 318.17C462.76 317.09 464.18 316.55 465.84 316.55C466.44 316.55 466.977 316.65 467.45 316.85C467.923 317.043 468.323 317.317 468.65 317.67C468.977 318.017 469.223 318.433 469.39 318.92C469.563 319.407 469.65 319.94 469.65 320.52V327H468.53C468.297 327 468.117 326.967 467.99 326.9C467.863 326.827 467.763 326.683 467.69 326.47L467.47 325.73C467.21 325.963 466.957 326.17 466.71 326.35C466.463 326.523 466.207 326.67 465.94 326.79C465.673 326.91 465.387 327 465.08 327.06C464.78 327.127 464.447 327.16 464.08 327.16C463.647 327.16 463.247 327.103 462.88 326.99C462.513 326.87 462.197 326.693 461.93 326.46C461.663 326.227 461.457 325.937 461.31 325.59C461.163 325.243 461.09 324.84 461.09 324.38C461.09 324.12 461.133 323.863 461.22 323.61C461.307 323.35 461.447 323.103 461.64 322.87C461.84 322.637 462.097 322.417 462.41 322.21C462.723 322.003 463.107 321.823 463.56 321.67C464.02 321.517 464.553 321.393 465.16 321.3C465.767 321.2 466.46 321.14 467.24 321.12V320.52C467.24 319.833 467.093 319.327 466.8 319C466.507 318.667 466.083 318.5 465.53 318.5C465.13 318.5 464.797 318.547 464.53 318.64C464.27 318.733 464.04 318.84 463.84 318.96C463.64 319.073 463.457 319.177 463.29 319.27C463.13 319.363 462.95 319.41 462.75 319.41C462.577 319.41 462.43 319.367 462.31 319.28C462.19 319.187 462.093 319.08 462.02 318.96L461.58 318.17ZM474.476 312.14V327H472.006V312.14H474.476ZM28.8259 342.6H29.4559C29.7092 342.6 29.9192 342.567 30.0859 342.5C30.2525 342.427 30.3959 342.313 30.5159 342.16L34.5059 337.11C34.6725 336.897 34.8459 336.75 35.0259 336.67C35.2125 336.583 35.4459 336.54 35.7259 336.54H38.0459L33.1759 342.55C32.8892 342.917 32.5925 343.177 32.2859 343.33C32.5059 343.41 32.7025 343.523 32.8759 343.67C33.0559 343.81 33.2259 343.997 33.3859 344.23L38.4059 351H36.0359C35.7159 351 35.4759 350.957 35.3159 350.87C35.1625 350.777 35.0325 350.643 34.9259 350.47L30.8359 345.13C30.7092 344.95 30.5625 344.823 30.3959 344.75C30.2292 344.677 29.9892 344.64 29.6759 344.64H28.8259V351H26.1359V336.54H28.8259V342.6ZM43.2546 340.58C44.0146 340.58 44.7046 340.703 45.3246 340.95C45.9513 341.197 46.4846 341.547 46.9246 342C47.3713 342.453 47.7146 343.007 47.9546 343.66C48.1946 344.313 48.3146 345.043 48.3146 345.85C48.3146 346.663 48.1946 347.397 47.9546 348.05C47.7146 348.703 47.3713 349.26 46.9246 349.72C46.4846 350.18 45.9513 350.533 45.3246 350.78C44.7046 351.027 44.0146 351.15 43.2546 351.15C42.488 351.15 41.7913 351.027 41.1646 350.78C40.538 350.533 40.0013 350.18 39.5546 349.72C39.1146 349.26 38.7713 348.703 38.5246 348.05C38.2846 347.397 38.1646 346.663 38.1646 345.85C38.1646 345.043 38.2846 344.313 38.5246 343.66C38.7713 343.007 39.1146 342.453 39.5546 342C40.0013 341.547 40.538 341.197 41.1646 340.95C41.7913 340.703 42.488 340.58 43.2546 340.58ZM43.2546 349.25C44.108 349.25 44.738 348.963 45.1446 348.39C45.558 347.817 45.7646 346.977 45.7646 345.87C45.7646 344.763 45.558 343.92 45.1446 343.34C44.738 342.76 44.108 342.47 43.2546 342.47C42.388 342.47 41.7446 342.763 41.3246 343.35C40.9113 343.93 40.7046 344.77 40.7046 345.87C40.7046 346.97 40.9113 347.81 41.3246 348.39C41.7446 348.963 42.388 349.25 43.2546 349.25ZM50.199 351V340.74H51.709C52.029 340.74 52.239 340.89 52.339 341.19L52.499 341.95C52.679 341.75 52.8657 341.567 53.059 341.4C53.259 341.233 53.469 341.09 53.689 340.97C53.9157 340.85 54.1557 340.757 54.409 340.69C54.669 340.617 54.9523 340.58 55.259 340.58C55.9057 340.58 56.4357 340.757 56.849 341.11C57.269 341.457 57.5823 341.92 57.789 342.5C57.949 342.16 58.149 341.87 58.389 341.63C58.629 341.383 58.8923 341.183 59.179 341.03C59.4657 340.877 59.769 340.763 60.089 340.69C60.4157 340.617 60.7423 340.58 61.069 340.58C61.6357 340.58 62.139 340.667 62.579 340.84C63.019 341.013 63.389 341.267 63.689 341.6C63.989 341.933 64.2157 342.34 64.369 342.82C64.529 343.3 64.609 343.85 64.609 344.47V351H62.139V344.47C62.139 343.817 61.9957 343.327 61.709 343C61.4223 342.667 61.0023 342.5 60.449 342.5C60.1957 342.5 59.959 342.543 59.739 342.63C59.5257 342.717 59.3357 342.843 59.169 343.01C59.009 343.17 58.8823 343.373 58.789 343.62C58.6957 343.867 58.649 344.15 58.649 344.47V351H56.169V344.47C56.169 343.783 56.029 343.283 55.749 342.97C55.4757 342.657 55.0723 342.5 54.539 342.5C54.179 342.5 53.8423 342.59 53.529 342.77C53.2223 342.943 52.9357 343.183 52.669 343.49V351H50.199ZM75.7968 340.74V351H74.2868C73.9602 351 73.7535 350.85 73.6668 350.55L73.4968 349.73C73.0768 350.157 72.6135 350.503 72.1068 350.77C71.6002 351.03 71.0035 351.16 70.3168 351.16C69.7568 351.16 69.2601 351.067 68.8268 350.88C68.4001 350.687 68.0401 350.417 67.7468 350.07C67.4535 349.723 67.2301 349.313 67.0768 348.84C66.9301 348.36 66.8568 347.833 66.8568 347.26V340.74H69.3268V347.26C69.3268 347.887 69.4701 348.373 69.7568 348.72C70.0501 349.06 70.4868 349.23 71.0668 349.23C71.4935 349.23 71.8935 349.137 72.2668 348.95C72.6402 348.757 72.9935 348.493 73.3268 348.16V340.74H75.7968ZM80.5559 342C80.7625 341.793 80.9792 341.603 81.2059 341.43C81.4392 341.25 81.6825 341.1 81.9359 340.98C82.1959 340.853 82.4725 340.757 82.7659 340.69C83.0592 340.617 83.3792 340.58 83.7259 340.58C84.2859 340.58 84.7825 340.677 85.2159 340.87C85.6492 341.057 86.0092 341.323 86.2959 341.67C86.5892 342.01 86.8092 342.42 86.9559 342.9C87.1092 343.373 87.1859 343.897 87.1859 344.47V351H84.7159V344.47C84.7159 343.843 84.5725 343.36 84.2859 343.02C83.9992 342.673 83.5625 342.5 82.9759 342.5C82.5492 342.5 82.1492 342.597 81.7759 342.79C81.4025 342.983 81.0492 343.247 80.7159 343.58V351H78.2459V340.74H79.7559C80.0759 340.74 80.2859 340.89 80.3859 341.19L80.5559 342ZM92.0949 340.74V351H89.6149V340.74H92.0949ZM92.4349 337.75C92.4349 337.963 92.3916 338.163 92.3049 338.35C92.2183 338.537 92.1016 338.7 91.9549 338.84C91.8149 338.98 91.6483 339.093 91.4549 339.18C91.2616 339.26 91.0549 339.3 90.8349 339.3C90.6216 339.3 90.4183 339.26 90.2249 339.18C90.0383 339.093 89.8749 338.98 89.7349 338.84C89.5949 338.7 89.4816 338.537 89.3949 338.35C89.3149 338.163 89.2749 337.963 89.2749 337.75C89.2749 337.53 89.3149 337.323 89.3949 337.13C89.4816 336.937 89.5949 336.77 89.7349 336.63C89.8749 336.49 90.0383 336.38 90.2249 336.3C90.4183 336.213 90.6216 336.17 90.8349 336.17C91.0549 336.17 91.2616 336.213 91.4549 336.3C91.6483 336.38 91.8149 336.49 91.9549 336.63C92.1016 336.77 92.2183 336.937 92.3049 337.13C92.3916 337.323 92.4349 337.53 92.4349 337.75ZM97.0831 336.14V344.65H97.5431C97.7097 344.65 97.8397 344.63 97.9331 344.59C98.0331 344.543 98.1331 344.453 98.2331 344.32L100.783 341.17C100.89 341.03 101.006 340.923 101.133 340.85C101.266 340.777 101.436 340.74 101.643 340.74H103.903L100.713 344.55C100.486 344.85 100.24 345.08 99.9731 345.24C100.113 345.34 100.236 345.457 100.343 345.59C100.456 345.723 100.563 345.867 100.663 346.02L104.083 351H101.853C101.66 351 101.493 350.97 101.353 350.91C101.213 350.843 101.096 350.727 101.003 350.56L98.3831 346.67C98.2897 346.517 98.1931 346.417 98.0931 346.37C97.9931 346.323 97.8431 346.3 97.6431 346.3H97.0831V351H94.6131V336.14H97.0831ZM110.717 346.62C110.003 346.653 109.403 346.717 108.917 346.81C108.43 346.897 108.04 347.01 107.747 347.15C107.453 347.29 107.243 347.453 107.117 347.64C106.99 347.827 106.927 348.03 106.927 348.25C106.927 348.683 107.053 348.993 107.307 349.18C107.567 349.367 107.903 349.46 108.317 349.46C108.823 349.46 109.26 349.37 109.627 349.19C110 349.003 110.363 348.723 110.717 348.35V346.62ZM105.057 342.17C106.237 341.09 107.657 340.55 109.317 340.55C109.917 340.55 110.453 340.65 110.927 340.85C111.4 341.043 111.8 341.317 112.127 341.67C112.453 342.017 112.7 342.433 112.867 342.92C113.04 343.407 113.127 343.94 113.127 344.52V351H112.007C111.773 351 111.593 350.967 111.467 350.9C111.34 350.827 111.24 350.683 111.167 350.47L110.947 349.73C110.687 349.963 110.433 350.17 110.187 350.35C109.94 350.523 109.683 350.67 109.417 350.79C109.15 350.91 108.863 351 108.557 351.06C108.257 351.127 107.923 351.16 107.557 351.16C107.123 351.16 106.723 351.103 106.357 350.99C105.99 350.87 105.673 350.693 105.407 350.46C105.14 350.227 104.933 349.937 104.787 349.59C104.64 349.243 104.567 348.84 104.567 348.38C104.567 348.12 104.61 347.863 104.697 347.61C104.783 347.35 104.923 347.103 105.117 346.87C105.317 346.637 105.573 346.417 105.887 346.21C106.2 346.003 106.583 345.823 107.037 345.67C107.497 345.517 108.03 345.393 108.637 345.3C109.243 345.2 109.937 345.14 110.717 345.12V344.52C110.717 343.833 110.57 343.327 110.277 343C109.983 342.667 109.56 342.5 109.007 342.5C108.607 342.5 108.273 342.547 108.007 342.64C107.747 342.733 107.517 342.84 107.317 342.96C107.117 343.073 106.933 343.177 106.767 343.27C106.607 343.363 106.427 343.41 106.227 343.41C106.053 343.41 105.907 343.367 105.787 343.28C105.667 343.187 105.57 343.08 105.497 342.96L105.057 342.17ZM121.713 342.74C121.646 342.847 121.576 342.923 121.503 342.97C121.43 343.01 121.336 343.03 121.223 343.03C121.103 343.03 120.973 342.997 120.833 342.93C120.7 342.863 120.543 342.79 120.363 342.71C120.183 342.623 119.976 342.547 119.743 342.48C119.516 342.413 119.246 342.38 118.933 342.38C118.446 342.38 118.063 342.483 117.783 342.69C117.51 342.897 117.373 343.167 117.373 343.5C117.373 343.72 117.443 343.907 117.583 344.06C117.73 344.207 117.92 344.337 118.153 344.45C118.393 344.563 118.663 344.667 118.963 344.76C119.263 344.847 119.566 344.943 119.873 345.05C120.186 345.157 120.493 345.28 120.793 345.42C121.093 345.553 121.36 345.727 121.593 345.94C121.833 346.147 122.023 346.397 122.163 346.69C122.31 346.983 122.383 347.337 122.383 347.75C122.383 348.243 122.293 348.7 122.113 349.12C121.94 349.533 121.68 349.893 121.333 350.2C120.986 350.5 120.556 350.737 120.043 350.91C119.536 351.077 118.95 351.16 118.283 351.16C117.93 351.16 117.583 351.127 117.243 351.06C116.91 351 116.586 350.913 116.273 350.8C115.966 350.687 115.68 350.553 115.413 350.4C115.153 350.247 114.923 350.08 114.723 349.9L115.293 348.96C115.366 348.847 115.453 348.76 115.553 348.7C115.653 348.64 115.78 348.61 115.933 348.61C116.086 348.61 116.23 348.653 116.363 348.74C116.503 348.827 116.663 348.92 116.843 349.02C117.023 349.12 117.233 349.213 117.473 349.3C117.72 349.387 118.03 349.43 118.403 349.43C118.696 349.43 118.946 349.397 119.153 349.33C119.366 349.257 119.54 349.163 119.673 349.05C119.813 348.937 119.913 348.807 119.973 348.66C120.04 348.507 120.073 348.35 120.073 348.19C120.073 347.95 120 347.753 119.853 347.6C119.713 347.447 119.523 347.313 119.283 347.2C119.05 347.087 118.78 346.987 118.473 346.9C118.173 346.807 117.863 346.707 117.543 346.6C117.23 346.493 116.92 346.37 116.613 346.23C116.313 346.083 116.043 345.9 115.803 345.68C115.57 345.46 115.38 345.19 115.233 344.87C115.093 344.55 115.023 344.163 115.023 343.71C115.023 343.29 115.106 342.89 115.273 342.51C115.44 342.13 115.683 341.8 116.003 341.52C116.33 341.233 116.733 341.007 117.213 340.84C117.7 340.667 118.26 340.58 118.893 340.58C119.6 340.58 120.243 340.697 120.823 340.93C121.403 341.163 121.886 341.47 122.273 341.85L121.713 342.74ZM126.802 340.74V351H124.322V340.74H126.802ZM127.142 337.75C127.142 337.963 127.099 338.163 127.012 338.35C126.925 338.537 126.809 338.7 126.662 338.84C126.522 338.98 126.355 339.093 126.162 339.18C125.969 339.26 125.762 339.3 125.542 339.3C125.329 339.3 125.125 339.26 124.932 339.18C124.745 339.093 124.582 338.98 124.442 338.84C124.302 338.7 124.189 338.537 124.102 338.35C124.022 338.163 123.982 337.963 123.982 337.75C123.982 337.53 124.022 337.323 124.102 337.13C124.189 336.937 124.302 336.77 124.442 336.63C124.582 336.49 124.745 336.38 124.932 336.3C125.125 336.213 125.329 336.17 125.542 336.17C125.762 336.17 125.969 336.213 126.162 336.3C126.355 336.38 126.522 336.49 126.662 336.63C126.809 336.77 126.925 336.937 127.012 337.13C127.099 337.323 127.142 337.53 127.142 337.75ZM138.943 343.42C139.45 343.42 139.89 343.357 140.263 343.23C140.643 343.103 140.953 342.93 141.193 342.71C141.44 342.483 141.623 342.217 141.743 341.91C141.863 341.603 141.923 341.267 141.923 340.9C141.923 340.167 141.68 339.603 141.193 339.21C140.713 338.817 139.977 338.62 138.983 338.62H137.263V343.42H138.943ZM145.863 351H143.433C142.973 351 142.64 350.82 142.433 350.46L139.393 345.83C139.28 345.657 139.153 345.533 139.013 345.46C138.88 345.387 138.68 345.35 138.413 345.35H137.263V351H134.573V336.54H138.983C139.963 336.54 140.803 336.643 141.503 336.85C142.21 337.05 142.787 337.333 143.233 337.7C143.687 338.067 144.02 338.507 144.233 339.02C144.447 339.527 144.553 340.087 144.553 340.7C144.553 341.187 144.48 341.647 144.333 342.08C144.193 342.513 143.987 342.907 143.713 343.26C143.447 343.613 143.113 343.923 142.713 344.19C142.32 344.457 141.87 344.667 141.363 344.82C141.537 344.92 141.697 345.04 141.843 345.18C141.99 345.313 142.123 345.473 142.243 345.66L145.863 351ZM155.484 340.74V351H153.974C153.648 351 153.441 350.85 153.354 350.55L153.184 349.73C152.764 350.157 152.301 350.503 151.794 350.77C151.288 351.03 150.691 351.16 150.004 351.16C149.444 351.16 148.948 351.067 148.514 350.88C148.088 350.687 147.728 350.417 147.434 350.07C147.141 349.723 146.918 349.313 146.764 348.84C146.618 348.36 146.544 347.833 146.544 347.26V340.74H149.014V347.26C149.014 347.887 149.158 348.373 149.444 348.72C149.738 349.06 150.174 349.23 150.754 349.23C151.181 349.23 151.581 349.137 151.954 348.95C152.328 348.757 152.681 348.493 153.014 348.16V340.74H155.484ZM157.933 351V340.74H159.443C159.763 340.74 159.973 340.89 160.073 341.19L160.233 341.95C160.413 341.75 160.6 341.567 160.793 341.4C160.993 341.233 161.203 341.09 161.423 340.97C161.65 340.85 161.89 340.757 162.143 340.69C162.403 340.617 162.687 340.58 162.993 340.58C163.64 340.58 164.17 340.757 164.583 341.11C165.003 341.457 165.317 341.92 165.523 342.5C165.683 342.16 165.883 341.87 166.123 341.63C166.363 341.383 166.627 341.183 166.913 341.03C167.2 340.877 167.503 340.763 167.823 340.69C168.15 340.617 168.477 340.58 168.803 340.58C169.37 340.58 169.873 340.667 170.313 340.84C170.753 341.013 171.123 341.267 171.423 341.6C171.723 341.933 171.95 342.34 172.103 342.82C172.263 343.3 172.343 343.85 172.343 344.47V351H169.873V344.47C169.873 343.817 169.73 343.327 169.443 343C169.157 342.667 168.737 342.5 168.183 342.5C167.93 342.5 167.693 342.543 167.473 342.63C167.26 342.717 167.07 342.843 166.903 343.01C166.743 343.17 166.617 343.373 166.523 343.62C166.43 343.867 166.383 344.15 166.383 344.47V351H163.903V344.47C163.903 343.783 163.763 343.283 163.483 342.97C163.21 342.657 162.807 342.5 162.273 342.5C161.913 342.5 161.577 342.59 161.263 342.77C160.957 342.943 160.67 343.183 160.403 343.49V351H157.933ZM180.111 346.62C179.398 346.653 178.798 346.717 178.311 346.81C177.825 346.897 177.435 347.01 177.141 347.15C176.848 347.29 176.638 347.453 176.511 347.64C176.385 347.827 176.321 348.03 176.321 348.25C176.321 348.683 176.448 348.993 176.701 349.18C176.961 349.367 177.298 349.46 177.711 349.46C178.218 349.46 178.655 349.37 179.021 349.19C179.395 349.003 179.758 348.723 180.111 348.35V346.62ZM174.451 342.17C175.631 341.09 177.051 340.55 178.711 340.55C179.311 340.55 179.848 340.65 180.321 340.85C180.795 341.043 181.195 341.317 181.521 341.67C181.848 342.017 182.095 342.433 182.261 342.92C182.435 343.407 182.521 343.94 182.521 344.52V351H181.401C181.168 351 180.988 350.967 180.861 350.9C180.735 350.827 180.635 350.683 180.561 350.47L180.341 349.73C180.081 349.963 179.828 350.17 179.581 350.35C179.335 350.523 179.078 350.67 178.811 350.79C178.545 350.91 178.258 351 177.951 351.06C177.651 351.127 177.318 351.16 176.951 351.16C176.518 351.16 176.118 351.103 175.751 350.99C175.385 350.87 175.068 350.693 174.801 350.46C174.535 350.227 174.328 349.937 174.181 349.59C174.035 349.243 173.961 348.84 173.961 348.38C173.961 348.12 174.005 347.863 174.091 347.61C174.178 347.35 174.318 347.103 174.511 346.87C174.711 346.637 174.968 346.417 175.281 346.21C175.595 346.003 175.978 345.823 176.431 345.67C176.891 345.517 177.425 345.393 178.031 345.3C178.638 345.2 179.331 345.14 180.111 345.12V344.52C180.111 343.833 179.965 343.327 179.671 343C179.378 342.667 178.955 342.5 178.401 342.5C178.001 342.5 177.668 342.547 177.401 342.64C177.141 342.733 176.911 342.84 176.711 342.96C176.511 343.073 176.328 343.177 176.161 343.27C176.001 343.363 175.821 343.41 175.621 343.41C175.448 343.41 175.301 343.367 175.181 343.28C175.061 343.187 174.965 343.08 174.891 342.96L174.451 342.17ZM187.317 341.84C187.717 341.467 188.157 341.163 188.637 340.93C189.117 340.697 189.681 340.58 190.327 340.58C190.887 340.58 191.384 340.677 191.817 340.87C192.251 341.057 192.611 341.323 192.897 341.67C193.191 342.01 193.411 342.42 193.557 342.9C193.711 343.373 193.787 343.897 193.787 344.47V351H191.317V344.47C191.317 343.843 191.174 343.36 190.887 343.02C190.601 342.673 190.164 342.5 189.577 342.5C189.151 342.5 188.751 342.597 188.377 342.79C188.004 342.983 187.651 343.247 187.317 343.58V351H184.847V336.14H187.317V341.84ZM210.884 338.75H206.524V351H203.834V338.75H199.474V336.54H210.884V338.75ZM215.599 346.62C214.886 346.653 214.286 346.717 213.799 346.81C213.313 346.897 212.923 347.01 212.629 347.15C212.336 347.29 212.126 347.453 211.999 347.64C211.873 347.827 211.809 348.03 211.809 348.25C211.809 348.683 211.936 348.993 212.189 349.18C212.449 349.367 212.786 349.46 213.199 349.46C213.706 349.46 214.143 349.37 214.509 349.19C214.883 349.003 215.246 348.723 215.599 348.35V346.62ZM209.939 342.17C211.119 341.09 212.539 340.55 214.199 340.55C214.799 340.55 215.336 340.65 215.809 340.85C216.283 341.043 216.683 341.317 217.009 341.67C217.336 342.017 217.583 342.433 217.749 342.92C217.923 343.407 218.009 343.94 218.009 344.52V351H216.889C216.656 351 216.476 350.967 216.349 350.9C216.223 350.827 216.123 350.683 216.049 350.47L215.829 349.73C215.569 349.963 215.316 350.17 215.069 350.35C214.823 350.523 214.566 350.67 214.299 350.79C214.033 350.91 213.746 351 213.439 351.06C213.139 351.127 212.806 351.16 212.439 351.16C212.006 351.16 211.606 351.103 211.239 350.99C210.873 350.87 210.556 350.693 210.289 350.46C210.023 350.227 209.816 349.937 209.669 349.59C209.523 349.243 209.449 348.84 209.449 348.38C209.449 348.12 209.493 347.863 209.579 347.61C209.666 347.35 209.806 347.103 209.999 346.87C210.199 346.637 210.456 346.417 210.769 346.21C211.083 346.003 211.466 345.823 211.919 345.67C212.379 345.517 212.913 345.393 213.519 345.3C214.126 345.2 214.819 345.14 215.599 345.12V344.52C215.599 343.833 215.453 343.327 215.159 343C214.866 342.667 214.443 342.5 213.889 342.5C213.489 342.5 213.156 342.547 212.889 342.64C212.629 342.733 212.399 342.84 212.199 342.96C211.999 343.073 211.816 343.177 211.649 343.27C211.489 343.363 211.309 343.41 211.109 343.41C210.936 343.41 210.789 343.367 210.669 343.28C210.549 343.187 210.453 343.08 210.379 342.96L209.939 342.17ZM222.646 342C222.852 341.793 223.069 341.603 223.296 341.43C223.529 341.25 223.772 341.1 224.026 340.98C224.286 340.853 224.562 340.757 224.856 340.69C225.149 340.617 225.469 340.58 225.816 340.58C226.376 340.58 226.872 340.677 227.306 340.87C227.739 341.057 228.099 341.323 228.386 341.67C228.679 342.01 228.899 342.42 229.046 342.9C229.199 343.373 229.276 343.897 229.276 344.47V351H226.806V344.47C226.806 343.843 226.662 343.36 226.376 343.02C226.089 342.673 225.652 342.5 225.066 342.5C224.639 342.5 224.239 342.597 223.866 342.79C223.492 342.983 223.139 343.247 222.806 343.58V351H220.336V340.74H221.846C222.166 340.74 222.376 340.89 222.476 341.19L222.646 342ZM235.375 345.62C235.681 345.62 235.948 345.58 236.175 345.5C236.401 345.413 236.588 345.297 236.735 345.15C236.888 345.003 237.001 344.827 237.075 344.62C237.155 344.413 237.195 344.187 237.195 343.94C237.195 343.433 237.041 343.033 236.735 342.74C236.435 342.44 235.981 342.29 235.375 342.29C234.768 342.29 234.311 342.44 234.005 342.74C233.705 343.033 233.555 343.433 233.555 343.94C233.555 344.18 233.591 344.403 233.665 344.61C233.745 344.817 233.858 344.997 234.005 345.15C234.158 345.297 234.348 345.413 234.575 345.5C234.808 345.58 235.075 345.62 235.375 345.62ZM238.165 351.46C238.165 351.26 238.105 351.097 237.985 350.97C237.865 350.843 237.701 350.747 237.495 350.68C237.288 350.607 237.045 350.553 236.765 350.52C236.491 350.487 236.198 350.463 235.885 350.45C235.578 350.43 235.258 350.413 234.925 350.4C234.598 350.387 234.278 350.36 233.965 350.32C233.691 350.473 233.468 350.653 233.295 350.86C233.128 351.067 233.045 351.307 233.045 351.58C233.045 351.76 233.088 351.927 233.175 352.08C233.268 352.24 233.411 352.377 233.605 352.49C233.805 352.603 234.061 352.69 234.375 352.75C234.688 352.817 235.071 352.85 235.525 352.85C235.985 352.85 236.381 352.813 236.715 352.74C237.048 352.673 237.321 352.577 237.535 352.45C237.755 352.33 237.915 352.183 238.015 352.01C238.115 351.843 238.165 351.66 238.165 351.46ZM240.625 341.09V342.01C240.625 342.303 240.448 342.483 240.095 342.55L239.175 342.72C239.315 343.073 239.385 343.46 239.385 343.88C239.385 344.387 239.281 344.847 239.075 345.26C238.875 345.667 238.595 346.013 238.235 346.3C237.875 346.587 237.448 346.81 236.955 346.97C236.468 347.123 235.941 347.2 235.375 347.2C235.175 347.2 234.981 347.19 234.795 347.17C234.608 347.15 234.425 347.123 234.245 347.09C233.925 347.283 233.765 347.5 233.765 347.74C233.765 347.947 233.858 348.1 234.045 348.2C234.238 348.293 234.491 348.36 234.805 348.4C235.118 348.44 235.475 348.467 235.875 348.48C236.275 348.487 236.685 348.507 237.105 348.54C237.525 348.573 237.935 348.633 238.335 348.72C238.735 348.8 239.091 348.93 239.405 349.11C239.718 349.29 239.968 349.537 240.155 349.85C240.348 350.157 240.445 350.553 240.445 351.04C240.445 351.493 240.331 351.933 240.105 352.36C239.885 352.787 239.561 353.167 239.135 353.5C238.715 353.833 238.195 354.1 237.575 354.3C236.961 354.507 236.261 354.61 235.475 354.61C234.701 354.61 234.028 354.533 233.455 354.38C232.881 354.233 232.405 354.033 232.025 353.78C231.645 353.533 231.361 353.247 231.175 352.92C230.988 352.593 230.895 352.253 230.895 351.9C230.895 351.42 231.038 351.02 231.325 350.7C231.618 350.373 232.018 350.113 232.525 349.92C232.251 349.78 232.035 349.593 231.875 349.36C231.715 349.127 231.635 348.82 231.635 348.44C231.635 348.287 231.661 348.13 231.715 347.97C231.775 347.803 231.858 347.64 231.965 347.48C232.078 347.32 232.218 347.17 232.385 347.03C232.551 346.883 232.748 346.753 232.975 346.64C232.455 346.36 232.045 345.987 231.745 345.52C231.451 345.053 231.305 344.507 231.305 343.88C231.305 343.373 231.405 342.917 231.605 342.51C231.811 342.097 232.095 341.747 232.455 341.46C232.821 341.167 233.251 340.943 233.745 340.79C234.245 340.637 234.788 340.56 235.375 340.56C235.815 340.56 236.228 340.607 236.615 340.7C237.001 340.787 237.355 340.917 237.675 341.09H240.625ZM245.922 345.62C246.228 345.62 246.495 345.58 246.722 345.5C246.948 345.413 247.135 345.297 247.282 345.15C247.435 345.003 247.548 344.827 247.622 344.62C247.702 344.413 247.742 344.187 247.742 343.94C247.742 343.433 247.588 343.033 247.282 342.74C246.982 342.44 246.528 342.29 245.922 342.29C245.315 342.29 244.858 342.44 244.552 342.74C244.252 343.033 244.102 343.433 244.102 343.94C244.102 344.18 244.138 344.403 244.212 344.61C244.292 344.817 244.405 344.997 244.552 345.15C244.705 345.297 244.895 345.413 245.122 345.5C245.355 345.58 245.622 345.62 245.922 345.62ZM248.712 351.46C248.712 351.26 248.652 351.097 248.532 350.97C248.412 350.843 248.248 350.747 248.042 350.68C247.835 350.607 247.592 350.553 247.312 350.52C247.038 350.487 246.745 350.463 246.432 350.45C246.125 350.43 245.805 350.413 245.472 350.4C245.145 350.387 244.825 350.36 244.512 350.32C244.238 350.473 244.015 350.653 243.842 350.86C243.675 351.067 243.592 351.307 243.592 351.58C243.592 351.76 243.635 351.927 243.722 352.08C243.815 352.24 243.958 352.377 244.152 352.49C244.352 352.603 244.608 352.69 244.922 352.75C245.235 352.817 245.618 352.85 246.072 352.85C246.532 352.85 246.928 352.813 247.262 352.74C247.595 352.673 247.868 352.577 248.082 352.45C248.302 352.33 248.462 352.183 248.562 352.01C248.662 351.843 248.712 351.66 248.712 351.46ZM251.172 341.09V342.01C251.172 342.303 250.995 342.483 250.642 342.55L249.722 342.72C249.862 343.073 249.932 343.46 249.932 343.88C249.932 344.387 249.828 344.847 249.622 345.26C249.422 345.667 249.142 346.013 248.782 346.3C248.422 346.587 247.995 346.81 247.502 346.97C247.015 347.123 246.488 347.2 245.922 347.2C245.722 347.2 245.528 347.19 245.342 347.17C245.155 347.15 244.972 347.123 244.792 347.09C244.472 347.283 244.312 347.5 244.312 347.74C244.312 347.947 244.405 348.1 244.592 348.2C244.785 348.293 245.038 348.36 245.352 348.4C245.665 348.44 246.022 348.467 246.422 348.48C246.822 348.487 247.232 348.507 247.652 348.54C248.072 348.573 248.482 348.633 248.882 348.72C249.282 348.8 249.638 348.93 249.952 349.11C250.265 349.29 250.515 349.537 250.702 349.85C250.895 350.157 250.992 350.553 250.992 351.04C250.992 351.493 250.878 351.933 250.652 352.36C250.432 352.787 250.108 353.167 249.682 353.5C249.262 353.833 248.742 354.1 248.122 354.3C247.508 354.507 246.808 354.61 246.022 354.61C245.248 354.61 244.575 354.533 244.002 354.38C243.428 354.233 242.952 354.033 242.572 353.78C242.192 353.533 241.908 353.247 241.722 352.92C241.535 352.593 241.442 352.253 241.442 351.9C241.442 351.42 241.585 351.02 241.872 350.7C242.165 350.373 242.565 350.113 243.072 349.92C242.798 349.78 242.582 349.593 242.422 349.36C242.262 349.127 242.182 348.82 242.182 348.44C242.182 348.287 242.208 348.13 242.262 347.97C242.322 347.803 242.405 347.64 242.512 347.48C242.625 347.32 242.765 347.17 242.932 347.03C243.098 346.883 243.295 346.753 243.522 346.64C243.002 346.36 242.592 345.987 242.292 345.52C241.998 345.053 241.852 344.507 241.852 343.88C241.852 343.373 241.952 342.917 242.152 342.51C242.358 342.097 242.642 341.747 243.002 341.46C243.368 341.167 243.798 340.943 244.292 340.79C244.792 340.637 245.335 340.56 245.922 340.56C246.362 340.56 246.775 340.607 247.162 340.7C247.548 340.787 247.902 340.917 248.222 341.09H251.172ZM258.158 346.62C257.445 346.653 256.845 346.717 256.358 346.81C255.871 346.897 255.481 347.01 255.188 347.15C254.895 347.29 254.685 347.453 254.558 347.64C254.431 347.827 254.368 348.03 254.368 348.25C254.368 348.683 254.495 348.993 254.748 349.18C255.008 349.367 255.345 349.46 255.758 349.46C256.265 349.46 256.701 349.37 257.068 349.19C257.441 349.003 257.805 348.723 258.158 348.35V346.62ZM252.498 342.17C253.678 341.09 255.098 340.55 256.758 340.55C257.358 340.55 257.895 340.65 258.368 340.85C258.841 341.043 259.241 341.317 259.568 341.67C259.895 342.017 260.141 342.433 260.308 342.92C260.481 343.407 260.568 343.94 260.568 344.52V351H259.448C259.215 351 259.035 350.967 258.908 350.9C258.781 350.827 258.681 350.683 258.608 350.47L258.388 349.73C258.128 349.963 257.875 350.17 257.628 350.35C257.381 350.523 257.125 350.67 256.858 350.79C256.591 350.91 256.305 351 255.998 351.06C255.698 351.127 255.365 351.16 254.998 351.16C254.565 351.16 254.165 351.103 253.798 350.99C253.431 350.87 253.115 350.693 252.848 350.46C252.581 350.227 252.375 349.937 252.228 349.59C252.081 349.243 252.008 348.84 252.008 348.38C252.008 348.12 252.051 347.863 252.138 347.61C252.225 347.35 252.365 347.103 252.558 346.87C252.758 346.637 253.015 346.417 253.328 346.21C253.641 346.003 254.025 345.823 254.478 345.67C254.938 345.517 255.471 345.393 256.078 345.3C256.685 345.2 257.378 345.14 258.158 345.12V344.52C258.158 343.833 258.011 343.327 257.718 343C257.425 342.667 257.001 342.5 256.448 342.5C256.048 342.5 255.715 342.547 255.448 342.64C255.188 342.733 254.958 342.84 254.758 342.96C254.558 343.073 254.375 343.177 254.208 343.27C254.048 343.363 253.868 343.41 253.668 343.41C253.495 343.41 253.348 343.367 253.228 343.28C253.108 343.187 253.011 343.08 252.938 342.96L252.498 342.17Z" fill="white"/>
<path d="M33.0668 363.976C29.261 363.976 26.1792 367.065 26.1792 370.871C26.1792 374.676 29.261 377.765 33.0668 377.765C36.8795 377.765 39.9682 374.676 39.9682 370.871C39.9682 367.065 36.8795 363.976 33.0668 363.976ZM33.0737 376.386C30.0263 376.386 27.5581 373.918 27.5581 370.871C27.5581 367.823 30.0263 365.355 33.0737 365.355C36.1211 365.355 38.5893 367.823 38.5893 370.871C38.5893 373.918 36.1211 376.386 33.0737 376.386ZM32.922 367.423H32.8807C32.6049 367.423 32.3843 367.644 32.3843 367.92V371.174C32.3843 371.415 32.5084 371.643 32.7221 371.767L35.5833 373.484C35.8177 373.622 36.1211 373.553 36.259 373.318C36.4038 373.084 36.3279 372.774 36.0866 372.636L33.4184 371.05V367.92C33.4184 367.644 33.1978 367.423 32.922 367.423Z" fill="#FEBB26"/>
<path d="M48.6997 375.871V374.901H50.7815V368.199H49.1274V367.444C49.5457 367.368 49.9069 367.277 50.2111 367.173C50.5248 367.059 50.8052 366.926 51.0524 366.774H51.9507V374.901H53.8328V375.871H48.6997ZM58.0259 376.042C57.3035 376.042 56.6998 375.913 56.215 375.657C55.7302 375.391 55.3357 375.091 55.0316 374.758L55.6304 373.988C55.9061 374.274 56.2293 374.526 56.6 374.744C56.9707 374.963 57.4223 375.072 57.9546 375.072C58.5059 375.072 58.9575 374.92 59.3092 374.616C59.6609 374.312 59.8368 373.908 59.8368 373.404C59.8368 373.043 59.7417 372.729 59.5516 372.463C59.371 372.187 59.0668 371.973 58.639 371.821C58.2208 371.669 57.6504 371.593 56.928 371.593V370.695C57.5744 370.695 58.0829 370.619 58.4537 370.467C58.8339 370.314 59.1048 370.11 59.2664 369.853C59.428 369.597 59.5088 369.312 59.5088 368.998C59.5088 368.551 59.3662 368.199 59.081 367.943C58.8054 367.686 58.4251 367.558 57.9403 367.558C57.5601 367.558 57.2084 367.643 56.8852 367.814C56.5715 367.986 56.2768 368.209 56.0012 368.485L55.3738 367.743C55.7255 367.41 56.1152 367.14 56.543 366.93C56.9707 366.712 57.4508 366.602 57.9831 366.602C58.7721 366.602 59.4232 366.807 59.9366 367.216C60.4499 367.615 60.7065 368.18 60.7065 368.912C60.7065 369.464 60.5544 369.915 60.2503 370.267C59.9461 370.619 59.5468 370.89 59.0525 371.08V371.137C59.6039 371.26 60.0696 371.522 60.4499 371.921C60.8301 372.311 61.0202 372.819 61.0202 373.447C61.0202 373.979 60.8871 374.44 60.621 374.83C60.3548 375.219 59.9936 375.519 59.5373 375.728C59.0905 375.937 58.5867 376.042 58.0259 376.042ZM65.8862 375.871V366.517H67.1125L70.4918 372.392L71.5042 374.331H71.5612C71.5327 373.855 71.4994 373.366 71.4614 372.862C71.4329 372.349 71.4186 371.845 71.4186 371.351V366.517H72.5451V375.871H71.3188L67.9252 369.982L66.9129 368.057H66.8558C66.8939 368.523 66.9271 369.003 66.9556 369.497C66.9937 369.991 67.0127 370.486 67.0127 370.98V375.871H65.8862ZM77.699 376.042C77.1382 376.042 76.6106 375.899 76.1163 375.614C75.6315 375.329 75.237 374.915 74.9328 374.373C74.6382 373.832 74.4908 373.18 74.4908 372.42C74.4908 371.641 74.6382 370.98 74.9328 370.438C75.237 369.896 75.6315 369.483 76.1163 369.198C76.6106 368.912 77.1382 368.77 77.699 368.77C78.2694 368.77 78.797 368.912 79.2818 369.198C79.7666 369.483 80.1563 369.896 80.451 370.438C80.7552 370.98 80.9073 371.641 80.9073 372.42C80.9073 373.18 80.7552 373.832 80.451 374.373C80.1563 374.915 79.7666 375.329 79.2818 375.614C78.797 375.899 78.2694 376.042 77.699 376.042ZM77.699 375.072C78.2979 375.072 78.778 374.83 79.1392 374.345C79.5099 373.851 79.6953 373.209 79.6953 372.42C79.6953 371.622 79.5099 370.975 79.1392 370.481C78.778 369.987 78.2979 369.739 77.699 369.739C77.1097 369.739 76.6296 369.987 76.2589 370.481C75.8882 370.975 75.7028 371.622 75.7028 372.42C75.7028 373.209 75.8882 373.851 76.2589 374.345C76.6296 374.83 77.1097 375.072 77.699 375.072ZM84.1737 375.871L81.6785 368.941H82.8904L84.2022 372.876C84.3068 373.219 84.4114 373.561 84.5159 373.903C84.63 374.245 84.7393 374.583 84.8439 374.915H84.9009C85.0055 374.583 85.1101 374.245 85.2146 373.903C85.3287 373.561 85.4333 373.219 85.5283 372.876L86.8401 368.941H87.9951L85.5426 375.871H84.1737ZM91.5882 375.871V375.172C92.5007 374.259 93.2754 373.461 93.9123 372.776C94.5492 372.083 95.034 371.46 95.3667 370.909C95.6994 370.348 95.8658 369.825 95.8658 369.34C95.8658 368.817 95.7232 368.39 95.438 368.057C95.1528 367.724 94.7203 367.558 94.1405 367.558C93.7602 367.558 93.4085 367.667 93.0853 367.886C92.7621 368.095 92.4674 368.352 92.2013 368.656L91.5311 367.986C91.9114 367.567 92.3154 367.235 92.7431 366.987C93.1804 366.731 93.6937 366.602 94.2831 366.602C95.1291 366.602 95.7945 366.85 96.2793 367.344C96.7641 367.829 97.0065 368.475 97.0065 369.283C97.0065 369.853 96.8449 370.433 96.5217 371.023C96.208 371.603 95.7707 372.216 95.2099 372.862C94.6585 373.499 94.0216 374.193 93.2992 374.944C93.5464 374.925 93.803 374.906 94.0692 374.887C94.3353 374.868 94.5872 374.858 94.8249 374.858H97.4628V375.871H91.5882ZM98.6757 375.871V375.172C99.5883 374.259 100.363 373.461 101 372.776C101.637 372.083 102.122 371.46 102.454 370.909C102.787 370.348 102.953 369.825 102.953 369.34C102.953 368.817 102.811 368.39 102.526 368.057C102.24 367.724 101.808 367.558 101.228 367.558C100.848 367.558 100.496 367.667 100.173 367.886C99.8497 368.095 99.555 368.352 99.2889 368.656L98.6187 367.986C98.9989 367.567 99.4029 367.235 99.8307 366.987C100.268 366.731 100.781 366.602 101.371 366.602C102.217 366.602 102.882 366.85 103.367 367.344C103.852 367.829 104.094 368.475 104.094 369.283C104.094 369.853 103.932 370.433 103.609 371.023C103.296 371.603 102.858 372.216 102.297 372.862C101.746 373.499 101.109 374.193 100.387 374.944C100.634 374.925 100.891 374.906 101.157 374.887C101.423 374.868 101.675 374.858 101.912 374.858H104.55V375.871H98.6757Z" fill="white"/>
<defs>
<linearGradient id="paint0_linear_29_9943" x1="271.5" y1="400" x2="271.5" y2="-148" gradientUnits="userSpaceOnUse">
<stop offset="0.119792"/>
<stop offset="0.296875" stop-opacity="0"/>
</linearGradient>
</defs>
</svg>
