<svg width="22" height="22" viewBox="0 0 22 22" fill="none" xmlns="http://www.w3.org/2000/svg">
<path d="M8.79527 0H9.02859C10.0775 0.0313672 11.1246 0.229023 12.1 0.619609C13.3753 1.12234 14.5286 1.92887 15.4425 2.9498C16.9787 4.64664 17.7989 6.96266 17.6885 9.24773C17.6176 11.0649 16.9516 12.8442 15.84 14.2807C17.7861 16.2306 19.7364 18.1766 21.6833 20.1257C21.8651 20.307 21.9695 20.5537 22 20.8068V20.9649C21.9721 21.5063 21.5071 21.9678 20.9675 22H20.8502C20.5825 21.9807 20.3195 21.8737 20.1287 21.6825C18.1796 19.7347 16.2332 17.7843 14.2824 15.8383C12.8906 16.9189 11.1736 17.5768 9.41316 17.6812C7.59688 17.802 5.74922 17.3383 4.20277 16.3797C2.7384 15.4786 1.54301 14.1423 0.824141 12.5787C0.311953 11.486 0.0425391 10.2867 0 9.0823V8.66207C0.0399609 6.87543 0.628203 5.10297 1.68566 3.66051C2.45867 2.59059 3.47402 1.69426 4.63719 1.06992C5.90734 0.376836 7.35066 0.0167578 8.79527 0ZM8.48246 2.21332C7.5668 2.26445 6.6623 2.50551 5.84504 2.92145C4.93883 3.37992 4.14434 4.05324 3.5316 4.86191C2.3607 6.38902 1.92414 8.44379 2.35855 10.3172C2.76074 12.1533 3.99953 13.7754 5.6448 14.6755C7.14441 15.5117 8.97531 15.7248 10.6283 15.2612C12.644 14.7207 14.3481 13.1618 15.0739 11.2067C15.8404 9.21809 15.5659 6.86684 14.3537 5.11328C13.7242 4.18816 12.8588 3.42418 11.8598 2.91887C10.8225 2.39078 9.64434 2.14758 8.48246 2.21332Z" fill="white"/>
</svg>
